<svg width="1366" height="128" viewBox="0 0 1366 128" fill="none" xmlns="http://www.w3.org/2000/svg">
<g clip-path="url(#clip0_42_1036)">
<g clip-path="url(#clip1_42_1036)">
<path d="M-7.6499 0H1380.65V128H-7.6499V0Z" fill="#B2DDF2"/>
<path d="M1380.65 1.99999C1377.15 2.39999 1374.25 4.69999 1373.05 8.09999C1371.75 11.5 1368.65 12.7 1366.15 12.7C1363.65 12.7 1360.55 11.5 1359.25 8.19999C1357.95 4.29999 1354.45 1.89999 1350.45 1.89999C1346.45 1.89999 1343.05 4.29999 1341.65 8.09999C1340.35 11.5 1337.25 12.7 1334.75 12.7C1332.25 12.7 1329.15 11.5 1327.85 8.19999C1326.55 4.29999 1323.05 1.89999 1319.05 1.89999C1315.05 1.89999 1311.65 4.39999 1310.25 8.19999C1308.95 11.6 1305.85 12.8 1303.35 12.8C1300.85 12.8 1297.75 11.6 1296.45 8.29999C1295.15 4.39999 1291.65 1.99999 1287.65 1.99999C1283.65 1.99999 1280.25 4.39999 1278.85 8.19999C1277.55 11.6 1274.45 12.8 1271.95 12.8C1269.45 12.8 1266.35 11.6 1265.05 8.29999C1263.75 4.39999 1260.25 1.99999 1256.25 1.99999C1252.25 1.99999 1248.85 4.39999 1247.45 8.19999C1246.15 11.6 1243.05 12.8 1240.55 12.8C1238.05 12.8 1234.95 11.6 1233.65 8.29999C1232.35 4.39999 1228.85 1.99999 1224.85 1.99999C1220.85 1.99999 1217.45 4.39999 1216.05 8.19999C1214.75 11.6 1211.65 12.8 1209.15 12.8C1206.65 12.8 1203.55 11.6 1202.25 8.29999C1200.95 4.39999 1197.45 1.99999 1193.45 1.99999C1189.45 1.99999 1186.05 4.49999 1184.65 8.29999C1183.35 11.7 1180.25 12.9 1177.75 12.9C1175.25 12.9 1172.15 11.7 1170.85 8.39999C1169.55 4.49999 1166.05 2.09999 1162.05 2.09999C1158.05 2.09999 1154.65 4.49999 1153.25 8.29999C1151.95 11.7 1148.85 12.9 1146.35 12.9C1143.85 12.9 1140.75 11.7 1139.45 8.39999C1138.15 4.49999 1134.65 2.09999 1130.65 2.09999C1126.65 2.09999 1123.25 4.49999 1121.85 8.29999C1120.55 11.7 1117.45 12.9 1114.95 12.9C1112.45 12.9 1109.35 11.7 1108.05 8.39999C1106.75 4.49999 1103.25 2.09999 1099.25 2.09999C1095.25 2.09999 1091.85 4.49999 1090.45 8.29999C1089.15 11.7 1086.05 12.9 1083.55 12.9C1081.05 12.9 1077.95 11.7 1076.65 8.39999C1075.35 4.49999 1071.85 2.09999 1067.85 2.09999C1063.85 2.09999 1060.45 4.59999 1059.05 8.39999C1057.75 11.8 1054.65 13 1052.15 13C1049.65 13 1046.55 11.8 1045.25 8.49999C1043.95 4.59999 1040.45 2.19999 1036.45 2.19999C1032.45 2.19999 1029.05 4.59999 1027.65 8.39999C1026.35 11.8 1023.25 13 1020.75 13C1018.25 13 1015.15 11.8 1013.85 8.49999C1012.55 4.59999 1009.05 2.19999 1005.05 2.19999C1001.05 2.19999 997.65 4.59999 996.25 8.39999C994.95 11.8 991.85 13 989.35 13C986.85 13 983.75 11.8 982.45 8.49999C981.15 4.59999 977.65 2.19999 973.65 2.19999C969.65 2.19999 966.25 4.59999 964.85 8.39999C963.55 11.8 960.45 13 957.95 13C955.45 13 952.35 11.8 951.05 8.49999C949.75 4.59999 946.25 2.19999 942.25 2.19999C938.25 2.19999 934.85 4.69999 933.45 8.49999C932.15 11.9 929.05 13.1 926.55 13.1C924.05 13.1 920.95 11.9 919.65 8.59999C918.35 4.69999 914.85 2.29999 910.85 2.29999C906.85 2.29999 903.45 4.69999 902.05 8.49999C900.75 11.9 897.65 13.1 895.15 13.1C892.65 13.1 889.55 11.9 888.25 8.59999C886.95 4.69999 883.45 2.29999 879.45 2.29999C875.45 2.29999 872.05 4.69999 870.65 8.49999C869.35 11.9 866.25 13.1 863.75 13.1C861.25 13.1 858.15 11.9 856.85 8.59999C855.55 4.69999 852.05 2.29999 848.05 2.29999C844.05 2.29999 840.65 4.69999 839.25 8.49999C837.95 11.9 834.85 13.1 832.35 13.1C829.85 13.1 826.75 11.9 825.45 8.59999C824.15 4.69999 820.65 2.29999 816.65 2.29999C812.65 2.29999 809.25 4.79999 807.85 8.59999C806.55 12 803.45 13.2 800.95 13.2C798.45 13.2 795.35 12 794.05 8.69999C792.75 4.79999 789.25 2.39999 785.25 2.39999C781.25 2.39999 777.85 4.79999 776.45 8.59999C775.15 12 772.05 13.2 769.55 13.2C767.05 13.2 763.95 12 762.65 8.69999C761.35 4.79999 757.85 2.39999 753.85 2.39999C749.85 2.39999 746.45 4.79999 745.05 8.59999C743.75 12 740.65 13.2 738.15 13.2C735.65 13.2 732.55 12 731.25 8.69999C729.95 4.79999 726.45 2.39999 722.45 2.39999C718.45 2.39999 715.05 4.79999 713.65 8.59999C712.35 12 709.25 13.2 706.75 13.2C704.25 13.2 701.15 12 699.85 8.69999C698.55 4.79999 695.05 2.39999 691.05 2.39999C687.05 2.39999 683.65 4.89999 682.25 8.69999C680.95 12.1 677.85 13.3 675.35 13.3C672.85 13.3 669.75 12.1 668.45 8.79999C667.15 4.89999 663.65 2.49999 659.65 2.49999C655.65 2.49999 652.25 4.89999 650.85 8.69999C649.55 12.1 646.45 13.3 643.95 13.3C641.45 13.3 638.35 12.1 637.05 8.79999C635.75 4.89999 632.25 2.49999 628.25 2.49999C624.25 2.49999 620.85 4.89999 619.45 8.69999C618.15 12.1 615.05 13.3 612.55 13.3C610.05 13.3 606.95 12.1 605.65 8.79999C604.35 4.89999 600.85 2.49999 596.85 2.49999C592.85 2.49999 589.45 4.89999 588.05 8.69999C586.75 12.1 583.65 13.3 581.15 13.3C578.65 13.3 575.55 12.1 574.25 8.79999C572.95 4.89999 569.45 2.49999 565.45 2.49999C561.45 2.49999 558.05 4.99999 556.65 8.79999C555.35 12.2 552.25 13.4 549.75 13.4C547.25 13.4 544.15 12.2 542.85 8.89999C541.55 4.99999 538.05 2.59999 534.05 2.59999C530.05 2.59999 526.65 4.99999 525.25 8.79999C523.95 12.2 520.85 13.4 518.35 13.4C515.85 13.4 512.75 12.2 511.45 8.89999C510.15 4.99999 506.65 2.59999 502.65 2.59999C498.65 2.59999 495.25 5.09999 493.85 8.89999C492.55 12.2 489.45 13.4 486.95 13.4C484.45 13.4 481.35 12.2 480.05 8.89999C478.75 4.99999 475.25 2.59999 471.25 2.59999C467.25 2.59999 463.85 4.99999 462.45 8.79999C461.15 12.2 458.05 13.4 455.55 13.4C453.05 13.4 449.95 12.2 448.65 8.89999C447.35 4.99999 443.85 2.59999 439.85 2.59999C435.85 2.59999 432.45 5.09999 431.05 8.89999C429.75 12.3 426.65 13.5 424.15 13.5C421.65 13.5 418.55 12.3 417.25 8.99999C415.95 5.09999 412.45 2.69999 408.45 2.69999C404.45 2.69999 401.05 5.09999 399.65 8.89999C398.35 12.3 395.25 13.5 392.75 13.5C390.25 13.5 387.15 12.3 385.85 8.99999C384.55 5.09999 381.05 2.69999 377.05 2.69999C373.05 2.69999 369.65 5.09999 368.25 8.89999C366.95 12.3 363.85 13.5 361.35 13.5C358.85 13.5 355.75 12.3 354.45 8.99999C353.15 5.09999 349.65 2.69999 345.65 2.69999C341.65 2.69999 338.25 5.09999 336.85 8.89999C335.55 12.3 332.45 13.5 329.95 13.5C327.45 13.5 324.35 12.3 323.05 8.99999C321.75 5.09999 318.25 2.69999 314.25 2.69999C310.25 2.69999 306.85 5.19999 305.45 8.99999C304.15 12.4 301.05 13.6 298.55 13.6C296.05 13.6 292.95 12.4 291.65 9.09999C290.35 5.19999 286.85 2.79999 282.85 2.79999C278.85 2.79999 275.45 5.19999 274.05 8.99999C272.75 12.4 269.65 13.6 267.15 13.6C264.65 13.6 261.55 12.4 260.25 9.09999C258.95 5.19999 255.45 2.79999 251.45 2.79999C247.45 2.79999 244.05 5.19999 242.65 8.99999C241.35 12.4 238.25 13.6 235.75 13.6C233.25 13.6 230.15 12.4 228.85 9.09999C227.55 5.19999 224.05 2.79999 220.05 2.79999C216.05 2.79999 212.65 5.19999 211.25 8.99999C209.95 12.4 206.85 13.6 204.35 13.6C201.85 13.6 198.75 12.4 197.45 9.09999C196.15 5.19999 192.65 2.79999 188.65 2.79999C184.65 2.79999 181.25 5.29999 179.85 9.09999C178.55 12.5 175.45 13.7 172.95 13.7C170.45 13.7 167.35 12.5 166.05 9.19999C164.75 5.29999 161.25 2.89999 157.25 2.89999C153.25 2.89999 149.85 5.29999 148.45 9.09999C147.15 12.5 144.05 13.7 141.55 13.7C139.05 13.7 135.95 12.5 134.65 9.19999C133.35 5.29999 129.85 2.89999 125.85 2.89999C121.85 2.89999 118.45 5.29999 117.05 9.09999C115.75 12.5 112.65 13.7 110.15 13.7C107.65 13.7 104.55 12.5 103.25 9.19999C101.95 5.29999 98.4501 2.89999 94.4501 2.89999C90.4501 2.89999 87.0501 5.29999 85.6501 9.09999C84.3501 12.5 81.2501 13.7 78.7501 13.7C76.2501 13.7 73.1501 12.5 71.8501 9.19999C70.5501 5.29999 67.0501 2.89999 63.0501 2.89999C59.0501 2.89999 55.6501 5.39999 54.2501 9.19999C52.9501 12.6 49.8501 13.8 47.3501 13.8C44.8501 13.8 41.7501 12.6 40.4501 9.29999C39.1501 5.39999 35.6501 2.99999 31.6501 2.99999C27.6501 2.99999 24.2501 5.39999 22.8501 9.19999C21.5501 12.6 18.4501 13.8 15.9501 13.8C13.4501 13.8 10.3501 12.6 9.0501 9.29999C7.7501 5.39999 4.2501 2.99999 0.250097 2.99999C-3.7499 2.99999 -7.2499 5.49999 -8.5499 9.29999L-6.6499 9.99999C-5.3499 6.29999 -2.2499 4.99999 0.250097 4.99999C2.7501 4.99999 5.8501 6.29999 7.1501 9.89999C8.5501 13.5 11.9501 15.8 15.9501 15.8C19.9501 15.8 23.3501 13.5 24.7501 9.99999C26.0501 6.29999 29.1501 4.99999 31.6501 4.99999C34.1501 4.99999 37.2501 6.29999 38.5501 9.89999C39.9501 13.5 43.3501 15.8 47.3501 15.8C51.3501 15.8 54.8501 13.5 56.1501 9.89999C57.4501 6.29999 60.5501 4.99999 63.0501 4.99999C65.5501 4.99999 68.6501 6.29999 69.9501 9.89999C71.3501 13.5 74.7501 15.8 78.7501 15.8C82.7501 15.8 86.1501 13.5 87.5501 9.99999C88.8501 6.29999 91.9501 4.99999 94.4501 4.99999C96.9501 4.99999 100.05 6.29999 101.35 9.89999C102.75 13.5 106.15 15.8 110.15 15.8C114.15 15.8 117.55 13.5 118.95 9.99999C120.25 6.29999 123.35 4.99999 125.85 4.99999C128.35 4.99999 131.45 6.29999 132.75 9.89999C134.15 13.5 137.55 15.8 141.55 15.8C145.55 15.8 148.95 13.5 150.35 9.99999C151.65 6.29999 154.75 4.99999 157.25 4.99999C159.75 4.99999 162.85 6.29999 164.15 9.89999C165.55 13.5 168.95 15.8 172.95 15.8C176.95 15.8 180.45 13.5 181.75 9.89999C183.05 6.29999 186.15 4.99999 188.65 4.99999C191.15 4.99999 194.25 6.29999 195.55 9.89999C196.95 13.5 200.35 15.8 204.35 15.8C208.35 15.8 211.75 13.5 213.15 9.99999C214.45 6.29999 217.55 4.99999 220.05 4.99999C222.55 4.99999 225.65 6.29999 226.95 9.89999C228.35 13.5 231.75 15.8 235.75 15.8C239.75 15.8 243.15 13.5 244.55 9.99999C245.85 6.29999 248.95 4.99999 251.45 4.99999C253.95 4.99999 257.05 6.29999 258.35 9.89999C259.75 13.5 263.15 15.8 267.15 15.8C271.15 15.8 274.55 13.5 275.95 9.99999C277.25 6.29999 280.35 4.99999 282.85 4.99999C285.35 4.99999 288.45 6.29999 289.75 9.89999C291.15 13.5 294.55 15.8 298.55 15.8C302.55 15.8 306.05 13.5 307.35 9.89999C308.65 6.29999 311.75 4.99999 314.25 4.99999C316.75 4.99999 319.85 6.29999 321.15 9.89999C322.55 13.5 325.95 15.8 329.95 15.8C333.95 15.8 337.35 13.5 338.75 9.99999C340.05 6.29999 343.15 4.99999 345.65 4.99999C348.15 4.99999 351.25 6.29999 352.55 9.89999C353.95 13.5 357.35 15.8 361.35 15.8C365.35 15.8 368.75 13.5 370.15 9.99999C371.45 6.29999 374.55 4.99999 377.05 4.99999C379.55 4.99999 382.65 6.29999 383.95 9.89999C385.35 13.5 388.75 15.8 392.75 15.8C396.75 15.8 400.15 13.5 401.55 9.99999C402.85 6.29999 405.95 4.99999 408.45 4.99999C410.95 4.99999 414.05 6.29999 415.35 9.89999C416.75 13.5 420.15 15.8 424.15 15.8C428.15 15.8 431.65 13.5 432.95 9.89999C434.25 6.29999 437.35 4.99999 439.85 4.99999C442.35 4.99999 445.45 6.29999 446.75 9.89999C448.15 13.5 451.55 15.8 455.55 15.8C459.55 15.8 462.95 13.5 464.35 9.99999C465.65 6.29999 468.75 4.99999 471.25 4.99999C473.75 4.99999 476.85 6.29999 478.15 9.89999C479.55 13.5 482.95 15.8 486.95 15.8C490.95 15.8 494.45 13.5 495.75 9.89999C497.05 6.29999 500.15 4.99999 502.65 4.99999C505.15 4.99999 508.25 6.29999 509.55 9.89999C510.95 13.5 514.35 15.8 518.35 15.8C522.35 15.8 525.75 13.5 527.15 9.99999C528.45 6.29999 531.55 4.99999 534.05 4.99999C536.55 4.99999 539.65 6.29999 540.95 9.89999C542.35 13.5 545.75 15.8 549.75 15.8C553.75 15.8 557.25 13.5 558.55 9.89999C559.85 6.29999 562.95 4.99999 565.45 4.99999C567.95 4.99999 571.05 6.29999 572.35 9.89999C573.75 13.5 577.15 15.8 581.15 15.8C585.15 15.8 588.55 13.5 589.95 9.99999C591.25 6.29999 594.35 4.99999 596.85 4.99999C599.35 4.99999 602.45 6.29999 603.75 9.89999C605.15 13.5 608.55 15.8 612.55 15.8C616.55 15.8 619.95 13.5 621.35 9.99999C622.65 6.29999 625.75 4.99999 628.25 4.99999C630.75 4.99999 633.85 6.29999 635.15 9.89999C636.55 13.5 639.95 15.8 643.95 15.8C647.95 15.8 651.35 13.5 652.75 9.99999C654.05 6.29999 657.15 4.99999 659.65 4.99999C662.15 4.99999 665.25 6.29999 666.55 9.89999C667.95 13.5 671.35 15.8 675.35 15.8C679.35 15.8 682.85 13.5 684.15 9.89999C685.45 6.29999 688.55 4.99999 691.05 4.99999C693.55 4.99999 696.65 6.29999 697.95 9.89999C699.35 13.5 702.75 15.8 706.75 15.8C710.75 15.8 714.15 13.5 715.55 9.99999C716.85 6.29999 719.95 4.99999 722.45 4.99999C724.95 4.99999 728.05 6.29999 729.35 9.89999C730.75 13.5 734.15 15.8 738.15 15.8C742.15 15.8 745.55 13.5 746.95 9.99999C748.25 6.29999 751.35 4.99999 753.85 4.99999C756.35 4.99999 759.45 6.29999 760.75 9.89999C762.15 13.5 765.55 15.8 769.55 15.8C773.55 15.8 776.95 13.5 778.35 9.99999C779.65 6.29999 782.75 4.99999 785.25 4.99999C787.75 4.99999 790.85 6.29999 792.15 9.89999C793.55 13.5 796.95 15.8 800.95 15.8C804.95 15.8 808.45 13.5 809.75 9.89999C811.05 6.29999 814.15 4.99999 816.65 4.99999C819.15 4.99999 822.25 6.29999 823.55 9.89999C824.95 13.5 828.35 15.8 832.35 15.8C836.35 15.8 839.75 13.5 841.15 9.99999C842.45 6.29999 845.55 4.99999 848.05 4.99999C850.55 4.99999 853.65 6.29999 854.95 9.89999C856.35 13.5 859.75 15.8 863.75 15.8C867.75 15.8 871.15 13.5 872.55 9.99999C873.85 6.29999 876.95 4.99999 879.45 4.99999C881.95 4.99999 885.05 6.29999 886.35 9.89999C887.75 13.5 891.15 15.8 895.15 15.8C899.15 15.8 902.55 13.5 903.95 9.99999C905.25 6.29999 908.35 4.99999 910.85 4.99999C913.35 4.99999 916.45 6.29999 917.75 9.89999C919.15 13.5 922.55 15.8 926.55 15.8C930.55 15.8 934.05 13.5 935.35 9.89999C936.65 6.29999 939.75 4.99999 942.25 4.99999C944.75 4.99999 947.85 6.29999 949.15 9.89999C950.55 13.5 953.95 15.8 957.95 15.8C961.95 15.8 965.35 13.5 966.75 9.99999C968.05 6.29999 971.15 4.99999 973.65 4.99999C976.15 4.99999 979.25 6.29999 980.55 9.89999C981.95 13.5 985.35 15.8 989.35 15.8C993.35 15.8 996.75 13.5 998.15 9.99999C999.45 6.29999 1002.55 4.99999 1005.05 4.99999C1007.55 4.99999 1010.65 6.29999 1011.95 9.89999C1013.35 13.5 1016.75 15.8 1020.75 15.8C1024.75 15.8 1028.15 13.5 1029.55 9.99999C1030.85 6.29999 1033.95 4.99999 1036.45 4.99999C1038.95 4.99999 1042.05 6.29999 1043.35 9.89999C1044.75 13.5 1048.15 15.8 1052.15 15.8C1056.15 15.8 1059.65 13.5 1060.95 9.89999C1062.25 6.29999 1065.35 4.99999 1067.85 4.99999C1070.35 4.99999 1073.45 6.29999 1074.75 9.89999C1076.15 13.5 1079.55 15.8 1083.55 15.8C1087.55 15.8 1090.95 13.5 1092.35 9.99999C1093.65 6.29999 1096.75 4.99999 1099.25 4.99999C1101.75 4.99999 1104.85 6.29999 1106.15 9.89999C1107.55 13.5 1110.95 15.8 1114.95 15.8C1118.95 15.8 1122.35 13.5 1123.75 9.99999C1125.05 6.29999 1128.15 4.99999 1130.65 4.99999C1133.15 4.99999 1136.25 6.29999 1137.55 9.89999C1138.95 13.5 1142.35 15.8 1146.35 15.8C1150.35 15.8 1153.75 13.5 1155.15 9.99999C1156.45 6.29999 1159.55 4.99999 1162.05 4.99999C1164.55 4.99999 1167.65 6.29999 1168.95 9.89999C1170.35 13.5 1173.75 15.8 1177.75 15.8C1181.75 15.8 1185.25 13.5 1186.55 9.89999C1187.85 6.29999 1190.95 4.99999 1193.45 4.99999C1195.95 4.99999 1199.05 6.29999 1200.35 9.89999C1201.75 13.5 1205.15 15.8 1209.15 15.8C1213.15 15.8 1216.55 13.5 1217.95 9.99999C1219.25 6.29999 1222.35 4.99999 1224.85 4.99999C1227.35 4.99999 1230.45 6.29999 1231.75 9.89999C1233.15 13.5 1236.55 15.8 1240.55 15.8C1244.55 15.8 1247.95 13.5 1249.35 9.99999C1250.65 6.29999 1253.75 4.99999 1256.25 4.99999C1258.75 4.99999 1261.85 6.29999 1263.15 9.89999C1264.55 13.5 1267.95 15.8 1271.95 15.8C1275.95 15.8 1279.35 13.5 1280.75 9.99999C1282.05 6.29999 1285.15 4.99999 1287.65 4.99999C1290.15 4.99999 1293.25 6.29999 1294.55 9.89999C1295.95 13.5 1299.35 15.8 1303.35 15.8C1307.35 15.8 1310.85 13.5 1312.15 9.89999C1313.45 6.29999 1316.55 4.99999 1319.05 4.99999C1321.55 4.99999 1324.65 6.29999 1325.95 9.89999C1327.35 13.5 1330.75 15.8 1334.75 15.8C1338.75 15.8 1342.15 13.5 1343.55 9.99999C1344.85 6.29999 1347.95 4.99999 1350.45 4.99999C1352.95 4.99999 1356.05 6.29999 1357.35 9.89999C1358.75 13.5 1362.15 15.8 1366.15 15.8C1370.15 15.8 1373.55 13.5 1374.95 9.99999C1376.05 6.89999 1378.45 5.49999 1380.65 5.09999V1.99999ZM1380.65 25.2C1377.35 25.8 1374.75 28 1373.45 31.2C1372.15 34.6 1369.05 35.8 1366.55 35.8C1364.05 35.8 1360.95 34.6 1359.65 31.3C1358.35 27.4 1354.85 25 1350.85 25C1346.85 25 1343.45 27.4 1342.05 31.2C1340.75 34.6 1337.65 35.8 1335.15 35.8C1332.65 35.8 1329.55 34.6 1328.25 31.3C1326.95 27.4 1323.45 25 1319.45 25C1315.45 25 1312.05 27.5 1310.65 31.3C1309.35 34.7 1306.25 35.9 1303.75 35.9C1301.25 35.9 1298.15 34.7 1296.85 31.4C1295.55 27.5 1292.05 25.1 1288.05 25.1C1284.05 25.1 1280.65 27.5 1279.25 31.3C1277.95 34.7 1274.85 35.9 1272.35 35.9C1269.85 35.9 1266.75 34.7 1265.45 31.4C1264.15 27.5 1260.65 25.1 1256.65 25.1C1252.65 25.1 1249.25 27.5 1247.85 31.3C1246.55 34.7 1243.45 35.9 1240.95 35.9C1238.45 35.9 1235.35 34.7 1234.05 31.4C1232.75 27.5 1229.25 25.1 1225.25 25.1C1221.25 25.1 1217.85 27.5 1216.45 31.3C1215.15 34.7 1212.05 35.9 1209.55 35.9C1207.05 35.9 1203.95 34.7 1202.65 31.4C1201.35 27.5 1197.85 25.1 1193.85 25.1C1189.85 25.1 1186.45 27.6 1185.05 31.4C1183.75 34.8 1180.65 36 1178.15 36C1175.65 36 1172.55 34.8 1171.25 31.5C1169.95 27.6 1166.45 25.2 1162.45 25.2C1158.45 25.2 1155.05 27.6 1153.65 31.4C1152.35 34.8 1149.25 36 1146.75 36C1144.25 36 1141.15 34.8 1139.85 31.5C1138.55 27.6 1135.05 25.2 1131.05 25.2C1127.05 25.2 1123.65 27.6 1122.25 31.4C1120.95 34.8 1117.85 36 1115.35 36C1112.85 36 1109.75 34.8 1108.45 31.5C1107.15 27.6 1103.65 25.2 1099.65 25.2C1095.65 25.2 1092.25 27.6 1090.85 31.4C1089.55 34.8 1086.45 36 1083.95 36C1081.45 36 1078.35 34.8 1077.05 31.5C1075.75 27.6 1072.25 25.2 1068.25 25.2C1064.25 25.2 1060.85 27.7 1059.45 31.5C1058.15 34.9 1055.05 36.1 1052.55 36.1C1050.05 36.1 1046.95 34.9 1045.65 31.6C1044.35 27.7 1040.85 25.3 1036.85 25.3C1032.85 25.3 1029.45 27.7 1028.05 31.5C1026.75 34.9 1023.65 36.1 1021.15 36.1C1018.65 36.1 1015.55 34.9 1014.25 31.6C1012.95 27.7 1009.45 25.3 1005.45 25.3C1001.45 25.3 998.05 27.7 996.65 31.5C995.35 34.9 992.25 36.1 989.75 36.1C987.25 36.1 984.15 34.9 982.85 31.6C981.55 27.7 978.05 25.3 974.05 25.3C970.05 25.3 966.65 27.7 965.25 31.5C963.95 34.9 960.85 36.1 958.35 36.1C955.85 36.1 952.75 34.9 951.45 31.6C950.15 27.7 946.65 25.3 942.65 25.3C938.65 25.3 935.25 27.8 933.85 31.6C932.55 35 929.45 36.2 926.95 36.2C924.45 36.2 921.35 35 920.05 31.7C918.75 27.8 915.25 25.4 911.25 25.4C907.25 25.4 903.85 27.8 902.45 31.6C901.15 35 898.05 36.2 895.55 36.2C893.05 36.2 889.95 35 888.65 31.7C887.35 27.8 883.85 25.4 879.85 25.4C875.85 25.4 872.45 27.8 871.05 31.6C869.75 35 866.65 36.2 864.15 36.2C861.65 36.2 858.55 35 857.25 31.7C855.95 27.8 852.45 25.4 848.45 25.4C844.45 25.4 841.05 27.8 839.65 31.6C838.35 35 835.25 36.2 832.75 36.2C830.25 36.2 827.15 35 825.85 31.7C824.55 27.8 821.05 25.4 817.05 25.4C813.05 25.4 809.65 27.9 808.25 31.7C806.95 35.1 803.85 36.3 801.35 36.3C798.85 36.3 795.75 35.1 794.45 31.8C793.15 27.9 789.65 25.5 785.65 25.5C781.65 25.5 778.25 27.9 776.85 31.7C775.55 35.1 772.45 36.3 769.95 36.3C767.45 36.3 764.35 35.1 763.05 31.8C761.75 27.9 758.25 25.5 754.25 25.5C750.25 25.5 746.85 27.9 745.45 31.7C744.15 35.1 741.05 36.3 738.55 36.3C736.05 36.3 732.95 35.1 731.65 31.8C730.35 27.9 726.85 25.5 722.85 25.5C718.85 25.5 715.45 27.9 714.05 31.7C712.75 35.1 709.65 36.3 707.15 36.3C704.65 36.3 701.55 35.1 700.25 31.8C698.95 27.9 695.45 25.5 691.45 25.5C687.45 25.5 684.05 28 682.65 31.8C681.35 35.2 678.25 36.4 675.75 36.4C673.25 36.4 670.15 35.2 668.85 31.9C667.55 28 664.05 25.6 660.05 25.6C656.05 25.6 652.65 28 651.25 31.8C649.95 35.2 646.85 36.4 644.35 36.4C641.85 36.4 638.75 35.2 637.45 31.9C636.15 28 632.65 25.6 628.65 25.6C624.65 25.6 621.25 28 619.85 31.8C618.55 35.2 615.45 36.4 612.95 36.4C610.45 36.4 607.35 35.2 606.05 31.9C604.75 28 601.25 25.6 597.25 25.6C593.25 25.6 589.85 28 588.45 31.8C587.15 35.2 584.05 36.4 581.55 36.4C579.05 36.4 575.95 35.2 574.65 31.9C573.35 28 569.85 25.6 565.85 25.6C561.85 25.6 558.45 28.1 557.05 31.9C555.75 35.3 552.65 36.5 550.15 36.5C547.65 36.5 544.55 35.3 543.25 32C541.95 28.1 538.45 25.7 534.45 25.7C530.45 25.7 527.05 28.1 525.65 31.9C524.35 35.3 521.25 36.5 518.75 36.5C516.25 36.5 513.15 35.3 511.85 32C510.55 28.1 507.05 25.7 503.05 25.7C499.05 25.7 495.65 28.2 494.25 32C492.95 35.3 489.85 36.5 487.35 36.5C484.85 36.5 481.75 35.3 480.45 32C479.15 28.1 475.65 25.7 471.65 25.7C467.65 25.7 464.25 28.1 462.85 31.9C461.55 35.3 458.45 36.5 455.95 36.5C453.45 36.5 450.35 35.3 449.05 32C447.75 28.1 444.25 25.7 440.25 25.7C436.25 25.7 432.85 28.2 431.45 32C430.15 35.4 427.05 36.6 424.55 36.6C422.05 36.6 418.95 35.4 417.65 32.1C416.35 28.2 412.85 25.8 408.85 25.8C404.85 25.8 401.45 28.2 400.05 32C398.75 35.4 395.65 36.6 393.15 36.6C390.65 36.6 387.55 35.4 386.25 32.1C384.95 28.2 381.45 25.8 377.45 25.8C373.45 25.8 370.05 28.2 368.65 32C367.35 35.4 364.25 36.6 361.75 36.6C359.25 36.6 356.15 35.4 354.85 32.1C353.55 28.2 350.05 25.8 346.05 25.8C342.05 25.8 338.65 28.2 337.25 32C335.95 35.4 332.85 36.6 330.35 36.6C327.85 36.6 324.75 35.4 323.45 32.1C322.15 28.2 318.65 25.8 314.65 25.8C310.65 25.8 307.25 28.3 305.85 32.1C304.55 35.5 301.45 36.7 298.95 36.7C296.45 36.7 293.35 35.5 292.05 32.2C290.75 28.3 287.25 25.9 283.25 25.9C279.25 25.9 275.85 28.3 274.45 32.1C273.15 35.5 270.05 36.7 267.55 36.7C265.05 36.7 261.95 35.5 260.65 32.2C259.35 28.3 255.85 25.9 251.85 25.9C247.85 25.9 244.45 28.3 243.05 32.1C241.75 35.5 238.65 36.7 236.15 36.7C233.65 36.7 230.55 35.5 229.25 32.2C227.95 28.3 224.45 25.9 220.45 25.9C216.45 25.9 213.05 28.3 211.65 32.1C210.35 35.5 207.25 36.7 204.75 36.7C202.25 36.7 199.15 35.5 197.85 32.2C196.55 28.3 193.05 25.9 189.05 25.9C185.05 25.9 181.65 28.4 180.25 32.2C178.95 35.6 175.85 36.8 173.35 36.8C170.85 36.8 167.75 35.6 166.45 32.3C165.15 28.4 161.65 26 157.65 26C153.65 26 150.25 28.4 148.85 32.2C147.55 35.6 144.45 36.8 141.95 36.8C139.45 36.8 136.35 35.6 135.05 32.3C133.75 28.4 130.25 26 126.25 26C122.25 26 118.85 28.4 117.45 32.2C116.15 35.6 113.05 36.8 110.55 36.8C108.05 36.8 104.95 35.6 103.65 32.3C102.35 28.4 98.8501 26 94.8501 26C90.8501 26 87.4501 28.4 86.0501 32.2C84.7501 35.6 81.6501 36.8 79.1501 36.8C76.6501 36.8 73.5501 35.6 72.2501 32.3C70.9501 28.4 67.4501 26 63.4501 26C59.4501 26 56.0501 28.5 54.6501 32.3C53.3501 35.7 50.2501 36.9 47.7501 36.9C45.2501 36.9 42.1501 35.7 40.8501 32.4C39.5501 28.5 36.0501 26.1 32.0501 26.1C28.0501 26.1 24.6501 28.5 23.2501 32.3C21.9501 35.7 18.8501 36.9 16.3501 36.9C13.8501 36.9 10.7501 35.7 9.4501 32.4C8.1501 28.5 4.6501 26.1 0.650098 26.1C-3.3499 26.1 -6.8499 28.6 -8.1499 32.4L-6.2499 33.1C-4.9499 29.4 -1.8499 28.1 0.650098 28.1C3.1501 28.1 6.2501 29.4 7.5501 33C8.9501 36.6 12.3501 38.9 16.3501 38.9C20.3501 38.9 23.7501 36.6 25.1501 33.1C26.4501 29.4 29.5501 28.1 32.0501 28.1C34.5501 28.1 37.6501 29.4 38.9501 33C40.3501 36.6 43.7501 38.9 47.7501 38.9C51.7501 38.9 55.2501 36.6 56.5501 33C57.8501 29.4 60.9501 28.1 63.4501 28.1C65.9501 28.1 69.0501 29.4 70.3501 33C71.7501 36.6 75.1501 38.9 79.1501 38.9C83.1501 38.9 86.5501 36.6 87.9501 33.1C89.2501 29.4 92.3501 28.1 94.8501 28.1C97.3501 28.1 100.45 29.4 101.75 33C103.15 36.6 106.55 38.9 110.55 38.9C114.55 38.9 117.95 36.6 119.35 33.1C120.65 29.4 123.75 28.1 126.25 28.1C128.75 28.1 131.85 29.4 133.15 33C134.55 36.6 137.95 38.9 141.95 38.9C145.95 38.9 149.35 36.6 150.75 33.1C152.05 29.4 155.15 28.1 157.65 28.1C160.15 28.1 163.25 29.4 164.55 33C165.95 36.6 169.35 38.9 173.35 38.9C177.35 38.9 180.85 36.6 182.15 33C183.45 29.4 186.55 28.1 189.05 28.1C191.55 28.1 194.65 29.4 195.95 33C197.35 36.6 200.75 38.9 204.75 38.9C208.75 38.9 212.15 36.6 213.55 33.1C214.85 29.4 217.95 28.1 220.45 28.1C222.95 28.1 226.05 29.4 227.35 33C228.75 36.6 232.15 38.9 236.15 38.9C240.15 38.9 243.55 36.6 244.95 33.1C246.25 29.4 249.35 28.1 251.85 28.1C254.35 28.1 257.45 29.4 258.75 33C260.15 36.6 263.55 38.9 267.55 38.9C271.55 38.9 274.95 36.6 276.35 33.1C277.65 29.4 280.75 28.1 283.25 28.1C285.75 28.1 288.85 29.4 290.15 33C291.55 36.6 294.95 38.9 298.95 38.9C302.95 38.9 306.45 36.6 307.75 33C309.05 29.4 312.15 28.1 314.65 28.1C317.15 28.1 320.25 29.4 321.55 33C322.95 36.6 326.35 38.9 330.35 38.9C334.35 38.9 337.75 36.6 339.15 33.1C340.45 29.4 343.55 28.1 346.05 28.1C348.55 28.1 351.65 29.4 352.95 33C354.35 36.6 357.75 38.9 361.75 38.9C365.75 38.9 369.15 36.6 370.55 33.1C371.85 29.4 374.95 28.1 377.45 28.1C379.95 28.1 383.05 29.4 384.35 33C385.75 36.6 389.15 38.9 393.15 38.9C397.15 38.9 400.55 36.6 401.95 33.1C403.25 29.4 406.35 28.1 408.85 28.1C411.35 28.1 414.45 29.4 415.75 33C417.15 36.6 420.55 38.9 424.55 38.9C428.55 38.9 432.05 36.6 433.35 33C434.65 29.4 437.75 28.1 440.25 28.1C442.75 28.1 445.85 29.4 447.15 33C448.55 36.6 451.95 38.9 455.95 38.9C459.95 38.9 463.35 36.6 464.75 33.1C466.05 29.4 469.15 28.1 471.65 28.1C474.15 28.1 477.25 29.4 478.55 33C479.95 36.6 483.35 38.9 487.35 38.9C491.35 38.9 494.85 36.6 496.15 33C497.45 29.4 500.55 28.1 503.05 28.1C505.55 28.1 508.65 29.4 509.95 33C511.35 36.6 514.75 38.9 518.75 38.9C522.75 38.9 526.15 36.6 527.55 33.1C528.85 29.4 531.95 28.1 534.45 28.1C536.95 28.1 540.05 29.4 541.35 33C542.75 36.6 546.15 38.9 550.15 38.9C554.15 38.9 557.65 36.6 558.95 33C560.25 29.4 563.35 28.1 565.85 28.1C568.35 28.1 571.45 29.4 572.75 33C574.15 36.6 577.55 38.9 581.55 38.9C585.55 38.9 588.95 36.6 590.35 33.1C591.65 29.4 594.75 28.1 597.25 28.1C599.75 28.1 602.85 29.4 604.15 33C605.55 36.6 608.95 38.9 612.95 38.9C616.95 38.9 620.35 36.6 621.75 33.1C623.05 29.4 626.15 28.1 628.65 28.1C631.15 28.1 634.25 29.4 635.55 33C636.95 36.6 640.35 38.9 644.35 38.9C648.35 38.9 651.75 36.6 653.15 33.1C654.45 29.4 657.55 28.1 660.05 28.1C662.55 28.1 665.65 29.4 666.95 33C668.35 36.6 671.75 38.9 675.75 38.9C679.75 38.9 683.25 36.6 684.55 33C685.85 29.4 688.95 28.1 691.45 28.1C693.95 28.1 697.05 29.4 698.35 33C699.75 36.6 703.15 38.9 707.15 38.9C711.15 38.9 714.55 36.6 715.95 33.1C717.25 29.4 720.35 28.1 722.85 28.1C725.35 28.1 728.45 29.4 729.75 33C731.15 36.6 734.55 38.9 738.55 38.9C742.55 38.9 745.95 36.6 747.35 33.1C748.65 29.4 751.75 28.1 754.25 28.1C756.75 28.1 759.85 29.4 761.15 33C762.55 36.6 765.95 38.9 769.95 38.9C773.95 38.9 777.35 36.6 778.75 33.1C780.05 29.4 783.15 28.1 785.65 28.1C788.15 28.1 791.25 29.4 792.55 33C793.95 36.6 797.35 38.9 801.35 38.9C805.35 38.9 808.85 36.6 810.15 33C811.45 29.4 814.55 28.1 817.05 28.1C819.55 28.1 822.65 29.4 823.95 33C825.35 36.6 828.75 38.9 832.75 38.9C836.75 38.9 840.15 36.6 841.55 33.1C842.85 29.4 845.95 28.1 848.45 28.1C850.95 28.1 854.05 29.4 855.35 33C856.75 36.6 860.15 38.9 864.15 38.9C868.15 38.9 871.55 36.6 872.95 33.1C874.25 29.4 877.35 28.1 879.85 28.1C882.35 28.1 885.45 29.4 886.75 33C888.15 36.6 891.55 38.9 895.55 38.9C899.55 38.9 902.95 36.6 904.35 33.1C905.65 29.4 908.75 28.1 911.25 28.1C913.75 28.1 916.85 29.4 918.15 33C919.55 36.6 922.95 38.9 926.95 38.9C930.95 38.9 934.45 36.6 935.75 33C937.05 29.4 940.15 28.1 942.65 28.1C945.15 28.1 948.25 29.4 949.55 33C950.95 36.6 954.35 38.9 958.35 38.9C962.35 38.9 965.75 36.6 967.15 33.1C968.45 29.4 971.55 28.1 974.05 28.1C976.55 28.1 979.65 29.4 980.95 33C982.35 36.6 985.75 38.9 989.75 38.9C993.75 38.9 997.15 36.6 998.55 33.1C999.85 29.4 1002.95 28.1 1005.45 28.1C1007.95 28.1 1011.05 29.4 1012.35 33C1013.75 36.6 1017.15 38.9 1021.15 38.9C1025.15 38.9 1028.55 36.6 1029.95 33.1C1031.25 29.4 1034.35 28.1 1036.85 28.1C1039.35 28.1 1042.45 29.4 1043.75 33C1045.15 36.6 1048.55 38.9 1052.55 38.9C1056.55 38.9 1060.05 36.6 1061.35 33C1062.65 29.4 1065.75 28.1 1068.25 28.1C1070.75 28.1 1073.85 29.4 1075.15 33C1076.55 36.6 1079.95 38.9 1083.95 38.9C1087.95 38.9 1091.35 36.6 1092.75 33.1C1094.05 29.4 1097.15 28.1 1099.65 28.1C1102.15 28.1 1105.25 29.4 1106.55 33C1107.95 36.6 1111.35 38.9 1115.35 38.9C1119.35 38.9 1122.75 36.6 1124.15 33.1C1125.45 29.4 1128.55 28.1 1131.05 28.1C1133.55 28.1 1136.65 29.4 1137.95 33C1139.35 36.6 1142.75 38.9 1146.75 38.9C1150.75 38.9 1154.15 36.6 1155.55 33.1C1156.85 29.4 1159.95 28.1 1162.45 28.1C1164.95 28.1 1168.05 29.4 1169.35 33C1170.75 36.6 1174.15 38.9 1178.15 38.9C1182.15 38.9 1185.65 36.6 1186.95 33C1188.25 29.4 1191.35 28.1 1193.85 28.1C1196.35 28.1 1199.45 29.4 1200.75 33C1202.15 36.6 1205.55 38.9 1209.55 38.9C1213.55 38.9 1216.95 36.6 1218.35 33.1C1219.65 29.4 1222.75 28.1 1225.25 28.1C1227.75 28.1 1230.85 29.4 1232.15 33C1233.55 36.6 1236.95 38.9 1240.95 38.9C1244.95 38.9 1248.35 36.6 1249.75 33.1C1251.05 29.4 1254.15 28.1 1256.65 28.1C1259.15 28.1 1262.25 29.4 1263.55 33C1264.95 36.6 1268.35 38.9 1272.35 38.9C1276.35 38.9 1279.75 36.6 1281.15 33.1C1282.45 29.4 1285.55 28.1 1288.05 28.1C1290.55 28.1 1293.65 29.4 1294.95 33C1296.35 36.6 1299.75 38.9 1303.75 38.9C1307.75 38.9 1311.25 36.6 1312.55 33C1313.85 29.4 1316.95 28.1 1319.45 28.1C1321.95 28.1 1325.05 29.4 1326.35 33C1327.75 36.6 1331.15 38.9 1335.15 38.9C1339.15 38.9 1342.55 36.6 1343.95 33.1C1345.25 29.4 1348.35 28.1 1350.85 28.1C1353.35 28.1 1356.45 29.4 1357.75 33C1359.15 36.6 1362.55 38.9 1366.55 38.9C1370.55 38.9 1373.95 36.6 1375.35 33.1C1376.35 30.2 1378.55 28.8 1380.65 28.3V25.2ZM1380.65 47.4C1377.35 48 1374.75 50.2 1373.45 53.4C1372.15 56.8 1369.05 58 1366.55 58C1364.05 58 1360.95 56.8 1359.65 53.5C1358.35 49.6 1354.85 47.2 1350.85 47.2C1346.85 47.2 1343.45 49.6 1342.05 53.4C1340.75 56.8 1337.65 58 1335.15 58C1332.65 58 1329.55 56.8 1328.25 53.5C1326.95 49.6 1323.45 47.2 1319.45 47.2C1315.45 47.2 1312.05 49.7 1310.65 53.5C1309.35 56.9 1306.25 58.1 1303.75 58.1C1301.25 58.1 1298.15 56.9 1296.85 53.6C1295.55 49.7 1292.05 47.3 1288.05 47.3C1284.05 47.3 1280.65 49.7 1279.25 53.5C1277.95 56.9 1274.85 58.1 1272.35 58.1C1269.85 58.1 1266.75 56.9 1265.45 53.6C1264.15 49.7 1260.65 47.3 1256.65 47.3C1252.65 47.3 1249.25 49.7 1247.85 53.5C1246.55 56.9 1243.45 58.1 1240.95 58.1C1238.45 58.1 1235.35 56.9 1234.05 53.6C1232.75 49.7 1229.25 47.3 1225.25 47.3C1221.25 47.3 1217.85 49.7 1216.45 53.5C1215.15 56.9 1212.05 58.1 1209.55 58.1C1207.05 58.1 1203.95 56.9 1202.65 53.6C1201.35 49.7 1197.85 47.3 1193.85 47.3C1189.85 47.3 1186.45 49.8 1185.05 53.6C1183.75 57 1180.65 58.2 1178.15 58.2C1175.65 58.2 1172.55 57 1171.25 53.7C1169.95 49.8 1166.45 47.4 1162.45 47.4C1158.45 47.4 1155.05 49.8 1153.65 53.6C1152.35 57 1149.25 58.2 1146.75 58.2C1144.25 58.2 1141.15 57 1139.85 53.7C1138.55 49.8 1135.05 47.4 1131.05 47.4C1127.05 47.4 1123.65 49.8 1122.25 53.6C1120.95 57 1117.85 58.2 1115.35 58.2C1112.85 58.2 1109.75 57 1108.45 53.7C1107.15 49.8 1103.65 47.4 1099.65 47.4C1095.65 47.4 1092.25 49.8 1090.85 53.6C1089.55 57 1086.45 58.2 1083.95 58.2C1081.45 58.2 1078.35 57 1077.05 53.7C1075.75 49.8 1072.25 47.4 1068.25 47.4C1064.25 47.4 1060.85 49.9 1059.45 53.7C1058.15 57.1 1055.05 58.3 1052.55 58.3C1050.05 58.3 1046.95 57.1 1045.65 53.8C1044.35 49.9 1040.85 47.5 1036.85 47.5C1032.85 47.5 1029.45 49.9 1028.05 53.7C1026.75 57.1 1023.65 58.3 1021.15 58.3C1018.65 58.3 1015.55 57.1 1014.25 53.8C1012.95 49.9 1009.45 47.5 1005.45 47.5C1001.45 47.5 998.05 49.9 996.65 53.7C995.35 57.1 992.25 58.3 989.75 58.3C987.25 58.3 984.15 57.1 982.85 53.8C981.55 49.9 978.05 47.5 974.05 47.5C970.05 47.5 966.65 49.9 965.25 53.7C963.95 57.1 960.85 58.3 958.35 58.3C955.85 58.3 952.75 57.1 951.45 53.8C950.15 49.9 946.65 47.5 942.65 47.5C938.65 47.5 935.25 50 933.85 53.8C932.55 57.2 929.45 58.4 926.95 58.4C924.45 58.4 921.35 57.2 920.05 53.9C918.75 50 915.25 47.6 911.25 47.6C907.25 47.6 903.85 50 902.45 53.8C901.15 57.2 898.05 58.4 895.55 58.4C893.05 58.4 889.95 57.2 888.65 53.9C887.35 50 883.85 47.6 879.85 47.6C875.85 47.6 872.45 50 871.05 53.8C869.75 57.2 866.65 58.4 864.15 58.4C861.65 58.4 858.55 57.2 857.25 53.9C855.95 50 852.45 47.6 848.45 47.6C844.45 47.6 841.05 50 839.65 53.8C838.35 57.2 835.25 58.4 832.75 58.4C830.25 58.4 827.15 57.2 825.85 53.9C824.55 50 821.05 47.6 817.05 47.6C813.05 47.6 809.65 50.1 808.25 53.9C806.95 57.3 803.85 58.5 801.35 58.5C798.85 58.5 795.75 57.3 794.45 54C793.15 50.1 789.65 47.7 785.65 47.7C781.65 47.7 778.25 50.1 776.85 53.9C775.55 57.3 772.45 58.5 769.95 58.5C767.45 58.5 764.35 57.3 763.05 54C761.75 50.1 758.25 47.7 754.25 47.7C750.25 47.7 746.85 50.1 745.45 53.9C744.15 57.3 741.05 58.5 738.55 58.5C736.05 58.5 732.95 57.3 731.65 54C730.35 50.1 726.85 47.7 722.85 47.7C718.85 47.7 715.45 50.1 714.05 53.9C712.75 57.3 709.65 58.5 707.15 58.5C704.65 58.5 701.55 57.3 700.25 54C698.95 50.1 695.45 47.7 691.45 47.7C687.45 47.7 684.05 50.2 682.65 54C681.35 57.4 678.25 58.6 675.75 58.6C673.25 58.6 670.15 57.4 668.85 54.1C667.55 50.2 664.05 47.8 660.05 47.8C656.05 47.8 652.65 50.2 651.25 54C649.95 57.4 646.85 58.6 644.35 58.6C641.85 58.6 638.75 57.4 637.45 54.1C636.15 50.2 632.65 47.8 628.65 47.8C624.65 47.8 621.25 50.2 619.85 54C618.55 57.4 615.45 58.6 612.95 58.6C610.45 58.6 607.35 57.4 606.05 54.1C604.75 50.2 601.25 47.8 597.25 47.8C593.25 47.8 589.85 50.2 588.45 54C587.15 57.4 584.05 58.6 581.55 58.6C579.05 58.6 575.95 57.4 574.65 54.1C573.35 50.2 569.85 47.8 565.85 47.8C561.85 47.8 558.45 50.3 557.05 54.1C555.75 57.5 552.65 58.7 550.15 58.7C547.65 58.7 544.55 57.5 543.25 54.2C541.95 50.3 538.45 47.9 534.45 47.9C530.45 47.9 527.05 50.3 525.65 54.1C524.35 57.5 521.25 58.7 518.75 58.7C516.25 58.7 513.15 57.5 511.85 54.2C510.55 50.3 507.05 47.9 503.05 47.9C499.05 47.9 495.65 50.4 494.25 54.2C492.95 57.5 489.85 58.7 487.35 58.7C484.85 58.7 481.75 57.5 480.45 54.2C479.15 50.3 475.65 47.9 471.65 47.9C467.65 47.9 464.25 50.3 462.85 54.1C461.55 57.5 458.45 58.7 455.95 58.7C453.45 58.7 450.35 57.5 449.05 54.2C447.75 50.3 444.25 47.9 440.25 47.9C436.25 47.9 432.85 50.4 431.45 54.2C430.15 57.6 427.05 58.8 424.55 58.8C422.05 58.8 418.95 57.6 417.65 54.3C416.35 50.4 412.85 48 408.85 48C404.85 48 401.45 50.4 400.05 54.2C398.75 57.6 395.65 58.8 393.15 58.8C390.65 58.8 387.55 57.6 386.25 54.3C384.95 50.4 381.45 48 377.45 48C373.45 48 370.05 50.4 368.65 54.2C367.35 57.6 364.25 58.8 361.75 58.8C359.25 58.8 356.15 57.6 354.85 54.3C353.55 50.4 350.05 48 346.05 48C342.05 48 338.65 50.4 337.25 54.2C335.95 57.6 332.85 58.8 330.35 58.8C327.85 58.8 324.75 57.6 323.45 54.3C322.15 50.4 318.65 48 314.65 48C310.65 48 307.25 50.5 305.85 54.3C304.55 57.7 301.45 58.9 298.95 58.9C296.45 58.9 293.35 57.7 292.05 54.4C290.75 50.5 287.25 48.1 283.25 48.1C279.25 48.1 275.85 50.5 274.45 54.3C273.15 57.7 270.05 58.9 267.55 58.9C265.05 58.9 261.95 57.7 260.65 54.4C259.35 50.5 255.85 48.1 251.85 48.1C247.85 48.1 244.45 50.5 243.05 54.3C241.75 57.7 238.65 58.9 236.15 58.9C233.65 58.9 230.55 57.7 229.25 54.4C227.95 50.5 224.45 48.1 220.45 48.1C216.45 48.1 213.05 50.5 211.65 54.3C210.35 57.7 207.25 58.9 204.75 58.9C202.25 58.9 199.15 57.7 197.85 54.4C196.55 50.5 193.05 48.1 189.05 48.1C185.05 48.1 181.65 50.6 180.25 54.4C178.95 57.8 175.85 59 173.35 59C170.85 59 167.75 57.8 166.45 54.5C165.15 50.6 161.65 48.2 157.65 48.2C153.65 48.2 150.25 50.6 148.85 54.4C147.55 57.8 144.45 59 141.95 59C139.45 59 136.35 57.8 135.05 54.5C133.75 50.6 130.25 48.2 126.25 48.2C122.25 48.2 118.85 50.6 117.45 54.4C116.15 57.8 113.05 59 110.55 59C108.05 59 104.95 57.8 103.65 54.5C102.35 50.6 98.8501 48.2 94.8501 48.2C90.8501 48.2 87.4501 50.6 86.0501 54.4C84.7501 57.8 81.6501 59 79.1501 59C76.6501 59 73.5501 57.8 72.2501 54.5C70.9501 50.6 67.4501 48.2 63.4501 48.2C59.4501 48.2 56.0501 50.7 54.6501 54.5C53.3501 57.9 50.2501 59.1 47.7501 59.1C45.2501 59.1 42.1501 57.9 40.8501 54.6C39.5501 50.7 36.0501 48.3 32.0501 48.3C28.0501 48.3 24.6501 50.7 23.2501 54.5C21.9501 57.9 18.8501 59.1 16.3501 59.1C13.8501 59.1 10.7501 57.9 9.4501 54.6C8.1501 50.7 4.6501 48.3 0.650098 48.3C-3.3499 48.3 -6.8499 50.8 -8.1499 54.6L-6.2499 55.3C-4.9499 51.6 -1.8499 50.3 0.650098 50.3C3.1501 50.3 6.2501 51.6 7.5501 55.2C8.9501 58.8 12.3501 61.1 16.3501 61.1C20.3501 61.1 23.7501 58.8 25.1501 55.3C26.4501 51.6 29.5501 50.3 32.0501 50.3C34.5501 50.3 37.6501 51.6 38.9501 55.2C40.3501 58.8 43.7501 61.1 47.7501 61.1C51.7501 61.1 55.2501 58.8 56.5501 55.2C57.8501 51.6 60.9501 50.3 63.4501 50.3C65.9501 50.3 69.0501 51.6 70.3501 55.2C71.7501 58.8 75.1501 61.1 79.1501 61.1C83.1501 61.1 86.5501 58.8 87.9501 55.3C89.2501 51.6 92.3501 50.3 94.8501 50.3C97.3501 50.3 100.45 51.6 101.75 55.2C103.15 58.8 106.55 61.1 110.55 61.1C114.55 61.1 117.95 58.8 119.35 55.3C120.65 51.6 123.75 50.3 126.25 50.3C128.75 50.3 131.85 51.6 133.15 55.2C134.55 58.8 137.95 61.1 141.95 61.1C145.95 61.1 149.35 58.8 150.75 55.3C152.05 51.6 155.15 50.3 157.65 50.3C160.15 50.3 163.25 51.6 164.55 55.2C165.95 58.8 169.35 61.1 173.35 61.1C177.35 61.1 180.85 58.8 182.15 55.2C183.45 51.6 186.55 50.3 189.05 50.3C191.55 50.3 194.65 51.6 195.95 55.2C197.35 58.8 200.75 61.1 204.75 61.1C208.75 61.1 212.15 58.8 213.55 55.3C214.85 51.6 217.95 50.3 220.45 50.3C222.95 50.3 226.05 51.6 227.35 55.2C228.75 58.8 232.15 61.1 236.15 61.1C240.15 61.1 243.55 58.8 244.95 55.3C246.25 51.6 249.35 50.3 251.85 50.3C254.35 50.3 257.45 51.6 258.75 55.2C260.15 58.8 263.55 61.1 267.55 61.1C271.55 61.1 274.95 58.8 276.35 55.3C277.65 51.6 280.75 50.3 283.25 50.3C285.75 50.3 288.85 51.6 290.15 55.2C291.55 58.8 294.95 61.1 298.95 61.1C302.95 61.1 306.45 58.8 307.75 55.2C309.05 51.6 312.15 50.3 314.65 50.3C317.15 50.3 320.25 51.6 321.55 55.2C322.95 58.8 326.35 61.1 330.35 61.1C334.35 61.1 337.75 58.8 339.15 55.3C340.45 51.6 343.55 50.3 346.05 50.3C348.55 50.3 351.65 51.6 352.95 55.2C354.35 58.8 357.75 61.1 361.75 61.1C365.75 61.1 369.15 58.8 370.55 55.3C371.85 51.6 374.95 50.3 377.45 50.3C379.95 50.3 383.05 51.6 384.35 55.2C385.75 58.8 389.15 61.1 393.15 61.1C397.15 61.1 400.55 58.8 401.95 55.3C403.25 51.6 406.35 50.3 408.85 50.3C411.35 50.3 414.45 51.6 415.75 55.2C417.15 58.8 420.55 61.1 424.55 61.1C428.55 61.1 432.05 58.8 433.35 55.2C434.65 51.6 437.75 50.3 440.25 50.3C442.75 50.3 445.85 51.6 447.15 55.2C448.55 58.8 451.95 61.1 455.95 61.1C459.95 61.1 463.35 58.8 464.75 55.3C466.05 51.6 469.15 50.3 471.65 50.3C474.15 50.3 477.25 51.6 478.55 55.2C479.95 58.8 483.35 61.1 487.35 61.1C491.35 61.1 494.85 58.8 496.15 55.2C497.45 51.6 500.55 50.3 503.05 50.3C505.55 50.3 508.65 51.6 509.95 55.2C511.35 58.8 514.75 61.1 518.75 61.1C522.75 61.1 526.15 58.8 527.55 55.3C528.85 51.6 531.95 50.3 534.45 50.3C536.95 50.3 540.05 51.6 541.35 55.2C542.75 58.8 546.15 61.1 550.15 61.1C554.15 61.1 557.65 58.8 558.95 55.2C560.25 51.6 563.35 50.3 565.85 50.3C568.35 50.3 571.45 51.6 572.75 55.2C574.15 58.8 577.55 61.1 581.55 61.1C585.55 61.1 588.95 58.8 590.35 55.3C591.65 51.6 594.75 50.3 597.25 50.3C599.75 50.3 602.85 51.6 604.15 55.2C605.55 58.8 608.95 61.1 612.95 61.1C616.95 61.1 620.35 58.8 621.75 55.3C623.05 51.6 626.15 50.3 628.65 50.3C631.15 50.3 634.25 51.6 635.55 55.2C636.95 58.8 640.35 61.1 644.35 61.1C648.35 61.1 651.75 58.8 653.15 55.3C654.45 51.6 657.55 50.3 660.05 50.3C662.55 50.3 665.65 51.6 666.95 55.2C668.35 58.8 671.75 61.1 675.75 61.1C679.75 61.1 683.25 58.8 684.55 55.2C685.85 51.6 688.95 50.3 691.45 50.3C693.95 50.3 697.05 51.6 698.35 55.2C699.75 58.8 703.15 61.1 707.15 61.1C711.15 61.1 714.55 58.8 715.95 55.3C717.25 51.6 720.35 50.3 722.85 50.3C725.35 50.3 728.45 51.6 729.75 55.2C731.15 58.8 734.55 61.1 738.55 61.1C742.55 61.1 745.95 58.8 747.35 55.3C748.65 51.6 751.75 50.3 754.25 50.3C756.75 50.3 759.85 51.6 761.15 55.2C762.55 58.8 765.95 61.1 769.95 61.1C773.95 61.1 777.35 58.8 778.75 55.3C780.05 51.6 783.15 50.3 785.65 50.3C788.15 50.3 791.25 51.6 792.55 55.2C793.95 58.8 797.35 61.1 801.35 61.1C805.35 61.1 808.85 58.8 810.15 55.2C811.45 51.6 814.55 50.3 817.05 50.3C819.55 50.3 822.65 51.6 823.95 55.2C825.35 58.8 828.75 61.1 832.75 61.1C836.75 61.1 840.15 58.8 841.55 55.3C842.85 51.6 845.95 50.3 848.45 50.3C850.95 50.3 854.05 51.6 855.35 55.2C856.75 58.8 860.15 61.1 864.15 61.1C868.15 61.1 871.55 58.8 872.95 55.3C874.25 51.6 877.35 50.3 879.85 50.3C882.35 50.3 885.45 51.6 886.75 55.2C888.15 58.8 891.55 61.1 895.55 61.1C899.55 61.1 902.95 58.8 904.35 55.3C905.65 51.6 908.75 50.3 911.25 50.3C913.75 50.3 916.85 51.6 918.15 55.2C919.55 58.8 922.95 61.1 926.95 61.1C930.95 61.1 934.45 58.8 935.75 55.2C937.05 51.6 940.15 50.3 942.65 50.3C945.15 50.3 948.25 51.6 949.55 55.2C950.95 58.8 954.35 61.1 958.35 61.1C962.35 61.1 965.75 58.8 967.15 55.3C968.45 51.6 971.55 50.3 974.05 50.3C976.55 50.3 979.65 51.6 980.95 55.2C982.35 58.8 985.75 61.1 989.75 61.1C993.75 61.1 997.15 58.8 998.55 55.3C999.85 51.6 1002.95 50.3 1005.45 50.3C1007.95 50.3 1011.05 51.6 1012.35 55.2C1013.75 58.8 1017.15 61.1 1021.15 61.1C1025.15 61.1 1028.55 58.8 1029.95 55.3C1031.25 51.6 1034.35 50.3 1036.85 50.3C1039.35 50.3 1042.45 51.6 1043.75 55.2C1045.15 58.8 1048.55 61.1 1052.55 61.1C1056.55 61.1 1060.05 58.8 1061.35 55.2C1062.65 51.6 1065.75 50.3 1068.25 50.3C1070.75 50.3 1073.85 51.6 1075.15 55.2C1076.55 58.8 1079.95 61.1 1083.95 61.1C1087.95 61.1 1091.35 58.8 1092.75 55.3C1094.05 51.6 1097.15 50.3 1099.65 50.3C1102.15 50.3 1105.25 51.6 1106.55 55.2C1107.95 58.8 1111.35 61.1 1115.35 61.1C1119.35 61.1 1122.75 58.8 1124.15 55.3C1125.45 51.6 1128.55 50.3 1131.05 50.3C1133.55 50.3 1136.65 51.6 1137.95 55.2C1139.35 58.8 1142.75 61.1 1146.75 61.1C1150.75 61.1 1154.15 58.8 1155.55 55.3C1156.85 51.6 1159.95 50.3 1162.45 50.3C1164.95 50.3 1168.05 51.6 1169.35 55.2C1170.75 58.8 1174.15 61.1 1178.15 61.1C1182.15 61.1 1185.65 58.8 1186.95 55.2C1188.25 51.6 1191.35 50.3 1193.85 50.3C1196.35 50.3 1199.45 51.6 1200.75 55.2C1202.15 58.8 1205.55 61.1 1209.55 61.1C1213.55 61.1 1216.95 58.8 1218.35 55.3C1219.65 51.6 1222.75 50.3 1225.25 50.3C1227.75 50.3 1230.85 51.6 1232.15 55.2C1233.55 58.8 1236.95 61.1 1240.95 61.1C1244.95 61.1 1248.35 58.8 1249.75 55.3C1251.05 51.6 1254.15 50.3 1256.65 50.3C1259.15 50.3 1262.25 51.6 1263.55 55.2C1264.95 58.8 1268.35 61.1 1272.35 61.1C1276.35 61.1 1279.75 58.8 1281.15 55.3C1282.45 51.6 1285.55 50.3 1288.05 50.3C1290.55 50.3 1293.65 51.6 1294.95 55.2C1296.35 58.8 1299.75 61.1 1303.75 61.1C1307.75 61.1 1311.25 58.8 1312.55 55.2C1313.85 51.6 1316.95 50.3 1319.45 50.3C1321.95 50.3 1325.05 51.6 1326.35 55.2C1327.75 58.8 1331.15 61.1 1335.15 61.1C1339.15 61.1 1342.55 58.8 1343.95 55.3C1345.25 51.6 1348.35 50.3 1350.85 50.3C1353.35 50.3 1356.45 51.6 1357.75 55.2C1359.15 58.8 1362.55 61.1 1366.55 61.1C1370.55 61.1 1373.95 58.8 1375.35 55.3C1376.35 52.4 1378.55 51 1380.65 50.5V47.4ZM1380.65 68.8C1377.15 69.2 1374.15 71.5 1372.95 74.9C1371.65 78.3 1368.55 79.5 1366.05 79.5C1363.55 79.5 1360.45 78.3 1359.15 75C1357.85 71.1 1354.35 68.7 1350.35 68.7C1346.35 68.7 1342.95 71.1 1341.55 74.9C1340.25 78.3 1337.15 79.5 1334.65 79.5C1332.15 79.5 1329.05 78.3 1327.75 75C1326.45 71.1 1322.95 68.7 1318.95 68.7C1314.95 68.7 1311.55 71.2 1310.15 75C1308.85 78.4 1305.75 79.6 1303.25 79.6C1300.75 79.6 1297.65 78.4 1296.35 75.1C1295.05 71.2 1291.55 68.8 1287.55 68.8C1283.55 68.8 1280.15 71.2 1278.75 75C1277.45 78.4 1274.35 79.6 1271.85 79.6C1269.35 79.6 1266.25 78.4 1264.95 75.1C1263.65 71.2 1260.15 68.8 1256.15 68.8C1252.15 68.8 1248.75 71.2 1247.35 75C1246.05 78.4 1242.95 79.6 1240.45 79.6C1237.95 79.6 1234.85 78.4 1233.55 75.1C1232.25 71.2 1228.75 68.8 1224.75 68.8C1220.75 68.8 1217.35 71.2 1215.95 75C1214.65 78.4 1211.55 79.6 1209.05 79.6C1206.55 79.6 1203.45 78.4 1202.15 75.1C1200.85 71.2 1197.35 68.8 1193.35 68.8C1189.35 68.8 1185.95 71.3 1184.55 75.1C1183.25 78.5 1180.15 79.7 1177.65 79.7C1175.15 79.7 1172.05 78.5 1170.75 75.2C1169.45 71.3 1165.95 68.9 1161.95 68.9C1157.95 68.9 1154.55 71.3 1153.15 75.1C1151.85 78.5 1148.75 79.7 1146.25 79.7C1143.75 79.7 1140.65 78.5 1139.35 75.2C1138.05 71.3 1134.55 68.9 1130.55 68.9C1126.55 68.9 1123.15 71.3 1121.75 75.1C1120.45 78.5 1117.35 79.7 1114.85 79.7C1112.35 79.7 1109.25 78.5 1107.95 75.2C1106.65 71.3 1103.15 68.9 1099.15 68.9C1095.15 68.9 1091.75 71.3 1090.35 75.1C1089.05 78.5 1085.95 79.7 1083.45 79.7C1080.95 79.7 1077.85 78.5 1076.55 75.2C1075.25 71.3 1071.75 68.9 1067.75 68.9C1063.75 68.9 1060.35 71.4 1058.95 75.2C1057.65 78.6 1054.55 79.8 1052.05 79.8C1049.55 79.8 1046.45 78.6 1045.15 75.3C1043.85 71.4 1040.35 69 1036.35 69C1032.35 69 1028.95 71.4 1027.55 75.2C1026.25 78.6 1023.15 79.8 1020.65 79.8C1018.15 79.8 1015.05 78.6 1013.75 75.3C1012.45 71.4 1008.95 69 1004.95 69C1000.95 69 997.55 71.4 996.15 75.2C994.85 78.6 991.75 79.8 989.25 79.8C986.75 79.8 983.65 78.6 982.35 75.3C981.05 71.4 977.55 69 973.55 69C969.55 69 966.15 71.4 964.75 75.2C963.45 78.6 960.35 79.8 957.85 79.8C955.35 79.8 952.25 78.6 950.95 75.3C949.65 71.4 946.15 69 942.15 69C938.15 69 934.75 71.5 933.35 75.3C932.05 78.7 928.95 79.9 926.45 79.9C923.95 79.9 920.85 78.7 919.55 75.4C918.25 71.5 914.75 69.1 910.75 69.1C906.75 69.1 903.35 71.5 901.95 75.3C900.65 78.7 897.55 79.9 895.05 79.9C892.55 79.9 889.45 78.7 888.15 75.4C886.85 71.5 883.35 69.1 879.35 69.1C875.35 69.1 871.95 71.5 870.55 75.3C869.25 78.7 866.15 79.9 863.65 79.9C861.15 79.9 858.05 78.7 856.75 75.4C855.45 71.5 851.95 69.1 847.95 69.1C843.95 69.1 840.55 71.5 839.15 75.3C837.85 78.7 834.75 79.9 832.25 79.9C829.75 79.9 826.65 78.7 825.35 75.4C824.05 71.5 820.55 69.1 816.55 69.1C812.55 69.1 809.15 71.6 807.75 75.4C806.45 78.8 803.35 80 800.85 80C798.35 80 795.25 78.8 793.95 75.5C792.65 71.6 789.15 69.2 785.15 69.2C781.15 69.2 777.75 71.6 776.35 75.4C775.05 78.8 771.95 80 769.45 80C766.95 80 763.85 78.8 762.55 75.5C761.25 71.6 757.75 69.2 753.75 69.2C749.75 69.2 746.35 71.6 744.95 75.4C743.65 78.8 740.55 80 738.05 80C735.55 80 732.45 78.8 731.15 75.5C729.85 71.6 726.35 69.2 722.35 69.2C718.35 69.2 714.95 71.6 713.55 75.4C712.25 78.8 709.15 80 706.65 80C704.15 80 701.05 78.8 699.75 75.5C698.45 71.6 694.95 69.2 690.95 69.2C686.95 69.2 683.55 71.7 682.15 75.5C680.85 78.9 677.75 80.1 675.25 80.1C672.75 80.1 669.65 78.9 668.35 75.6C667.05 71.7 663.55 69.3 659.55 69.3C655.55 69.3 652.15 71.7 650.75 75.5C649.45 78.9 646.35 80.1 643.85 80.1C641.35 80.1 638.25 78.9 636.95 75.6C635.65 71.7 632.15 69.3 628.15 69.3C624.15 69.3 620.75 71.7 619.35 75.5C618.05 78.9 614.95 80.1 612.45 80.1C609.95 80.1 606.85 78.9 605.55 75.6C604.25 71.7 600.75 69.3 596.75 69.3C592.75 69.3 589.35 71.7 587.95 75.5C586.65 78.9 583.55 80.1 581.05 80.1C578.55 80.1 575.45 78.9 574.15 75.6C572.85 71.7 569.35 69.3 565.35 69.3C561.35 69.3 557.95 71.8 556.55 75.6C555.25 79 552.15 80.2 549.65 80.2C547.15 80.2 544.05 79 542.75 75.7C541.45 71.8 537.95 69.4 533.95 69.4C529.95 69.4 526.55 71.8 525.15 75.6C523.85 79 520.75 80.2 518.25 80.2C515.75 80.2 512.65 79 511.35 75.7C510.05 71.8 506.55 69.4 502.55 69.4C498.55 69.4 495.15 71.9 493.75 75.7C492.45 79 489.35 80.2 486.85 80.2C484.35 80.2 481.25 79 479.95 75.7C478.65 71.8 475.15 69.4 471.15 69.4C467.15 69.4 463.75 71.8 462.35 75.6C461.05 79 457.95 80.2 455.45 80.2C452.95 80.2 449.85 79 448.55 75.7C447.25 71.8 443.75 69.4 439.75 69.4C435.75 69.4 432.35 71.9 430.95 75.7C429.65 79.1 426.55 80.3 424.05 80.3C421.55 80.3 418.45 79.1 417.15 75.8C415.85 71.9 412.35 69.5 408.35 69.5C404.35 69.5 400.95 71.9 399.55 75.7C398.25 79.1 395.15 80.3 392.65 80.3C390.15 80.3 387.05 79.1 385.75 75.8C384.45 71.9 380.95 69.5 376.95 69.5C372.95 69.5 369.55 71.9 368.15 75.7C366.85 79.1 363.75 80.3 361.25 80.3C358.75 80.3 355.65 79.1 354.35 75.8C353.05 71.9 349.55 69.5 345.55 69.5C341.55 69.5 338.15 71.9 336.75 75.7C335.45 79.1 332.35 80.3 329.85 80.3C327.35 80.3 324.25 79.1 322.95 75.8C321.65 71.9 318.15 69.5 314.15 69.5C310.15 69.5 306.75 72 305.35 75.8C304.05 79.2 300.95 80.4 298.45 80.4C295.95 80.4 292.85 79.2 291.55 75.9C290.25 72 286.75 69.6 282.75 69.6C278.75 69.6 275.35 72 273.95 75.8C272.65 79.2 269.55 80.4 267.05 80.4C264.55 80.4 261.45 79.2 260.15 75.9C258.85 72 255.35 69.6 251.35 69.6C247.35 69.6 243.95 72 242.55 75.8C241.25 79.2 238.15 80.4 235.65 80.4C233.15 80.4 230.05 79.2 228.75 75.9C227.45 72 223.95 69.6 219.95 69.6C215.95 69.6 212.55 72 211.15 75.8C209.85 79.2 206.75 80.4 204.25 80.4C201.75 80.4 198.65 79.2 197.35 75.9C196.05 72 192.55 69.6 188.55 69.6C184.55 69.6 181.15 72.1 179.75 75.9C178.45 79.3 175.35 80.5 172.85 80.5C170.35 80.5 167.25 79.3 165.95 76C164.65 72.1 161.15 69.7 157.15 69.7C153.15 69.7 149.75 72.1 148.35 75.9C147.05 79.3 143.95 80.5 141.45 80.5C138.95 80.5 135.85 79.3 134.55 76C133.25 72.1 129.75 69.7 125.75 69.7C121.75 69.7 118.35 72.1 116.95 75.9C115.65 79.3 112.55 80.5 110.05 80.5C107.55 80.5 104.45 79.3 103.15 76C101.85 72.1 98.3501 69.7 94.3501 69.7C90.3501 69.7 86.9501 72.1 85.5501 75.9C84.2501 79.3 81.1501 80.5 78.6501 80.5C76.1501 80.5 73.0501 79.3 71.7501 76C70.4501 72.1 66.9501 69.7 62.9501 69.7C58.9501 69.7 55.5501 72.2 54.1501 76C52.8501 79.4 49.7501 80.6 47.2501 80.6C44.7501 80.6 41.6501 79.4 40.3501 76.1C39.0501 72.2 35.5501 69.8 31.5501 69.8C27.5501 69.8 24.1501 72.2 22.7501 76C21.4501 79.4 18.3501 80.6 15.8501 80.6C13.3501 80.6 10.2501 79.4 8.9501 76.1C7.6501 72.2 4.1501 69.8 0.150098 69.8C-3.8499 69.8 -7.3499 72.3 -8.6499 76.1L-6.7499 76.8C-5.4499 73.1 -2.3499 71.8 0.150098 71.8C2.6501 71.8 5.7501 73.1 7.0501 76.7C8.4501 80.3 11.8501 82.6 15.8501 82.6C19.8501 82.6 23.2501 80.3 24.6501 76.8C25.9501 73.1 29.0501 71.8 31.5501 71.8C34.0501 71.8 37.1501 73.1 38.4501 76.7C39.8501 80.3 43.2501 82.6 47.2501 82.6C51.2501 82.6 54.7501 80.3 56.0501 76.7C57.3501 73.1 60.4501 71.8 62.9501 71.8C65.4501 71.8 68.5501 73.1 69.8501 76.7C71.2501 80.3 74.6501 82.6 78.6501 82.6C82.6501 82.6 86.0501 80.3 87.4501 76.8C88.7501 73.1 91.8501 71.8 94.3501 71.8C96.8501 71.8 99.9501 73.1 101.25 76.7C102.65 80.3 106.05 82.6 110.05 82.6C114.05 82.6 117.45 80.3 118.85 76.8C120.15 73.1 123.25 71.8 125.75 71.8C128.25 71.8 131.35 73.1 132.65 76.7C134.05 80.3 137.45 82.6 141.45 82.6C145.45 82.6 148.85 80.3 150.25 76.8C151.55 73.1 154.65 71.8 157.15 71.8C159.65 71.8 162.75 73.1 164.05 76.7C165.45 80.3 168.85 82.6 172.85 82.6C176.85 82.6 180.35 80.3 181.65 76.7C182.95 73.1 186.05 71.8 188.55 71.8C191.05 71.8 194.15 73.1 195.45 76.7C196.85 80.3 200.25 82.6 204.25 82.6C208.25 82.6 211.65 80.3 213.05 76.8C214.35 73.1 217.45 71.8 219.95 71.8C222.45 71.8 225.55 73.1 226.85 76.7C228.25 80.3 231.65 82.6 235.65 82.6C239.65 82.6 243.05 80.3 244.45 76.8C245.75 73.1 248.85 71.8 251.35 71.8C253.85 71.8 256.95 73.1 258.25 76.7C259.65 80.3 263.05 82.6 267.05 82.6C271.05 82.6 274.45 80.3 275.85 76.8C277.15 73.1 280.25 71.8 282.75 71.8C285.25 71.8 288.35 73.1 289.65 76.7C291.05 80.3 294.45 82.6 298.45 82.6C302.45 82.6 305.95 80.3 307.25 76.7C308.55 73.1 311.65 71.8 314.15 71.8C316.65 71.8 319.75 73.1 321.05 76.7C322.45 80.3 325.85 82.6 329.85 82.6C333.85 82.6 337.25 80.3 338.65 76.8C339.95 73.1 343.05 71.8 345.55 71.8C348.05 71.8 351.15 73.1 352.45 76.7C353.85 80.3 357.25 82.6 361.25 82.6C365.25 82.6 368.65 80.3 370.05 76.8C371.35 73.1 374.45 71.8 376.95 71.8C379.45 71.8 382.55 73.1 383.85 76.7C385.25 80.3 388.65 82.6 392.65 82.6C396.65 82.6 400.05 80.3 401.45 76.8C402.75 73.1 405.85 71.8 408.35 71.8C410.85 71.8 413.95 73.1 415.25 76.7C416.65 80.3 420.05 82.6 424.05 82.6C428.05 82.6 431.55 80.3 432.85 76.7C434.15 73.1 437.25 71.8 439.75 71.8C442.25 71.8 445.35 73.1 446.65 76.7C448.05 80.3 451.45 82.6 455.45 82.6C459.45 82.6 462.85 80.3 464.25 76.8C465.55 73.1 468.65 71.8 471.15 71.8C473.65 71.8 476.75 73.1 478.05 76.7C479.45 80.3 482.85 82.6 486.85 82.6C490.85 82.6 494.35 80.3 495.65 76.7C496.95 73.1 500.05 71.8 502.55 71.8C505.05 71.8 508.15 73.1 509.45 76.7C510.85 80.3 514.25 82.6 518.25 82.6C522.25 82.6 525.65 80.3 527.05 76.8C528.35 73.1 531.45 71.8 533.95 71.8C536.45 71.8 539.55 73.1 540.85 76.7C542.25 80.3 545.65 82.6 549.65 82.6C553.65 82.6 557.15 80.3 558.45 76.7C559.75 73.1 562.85 71.8 565.35 71.8C567.85 71.8 570.95 73.1 572.25 76.7C573.65 80.3 577.05 82.6 581.05 82.6C585.05 82.6 588.45 80.3 589.85 76.8C591.15 73.1 594.25 71.8 596.75 71.8C599.25 71.8 602.35 73.1 603.65 76.7C605.05 80.3 608.45 82.6 612.45 82.6C616.45 82.6 619.85 80.3 621.25 76.8C622.55 73.1 625.65 71.8 628.15 71.8C630.65 71.8 633.75 73.1 635.05 76.7C636.45 80.3 639.85 82.6 643.85 82.6C647.85 82.6 651.25 80.3 652.65 76.8C653.95 73.1 657.05 71.8 659.55 71.8C662.05 71.8 665.15 73.1 666.45 76.7C667.85 80.3 671.25 82.6 675.25 82.6C679.25 82.6 682.75 80.3 684.05 76.7C685.35 73.1 688.45 71.8 690.95 71.8C693.45 71.8 696.55 73.1 697.85 76.7C699.25 80.3 702.65 82.6 706.65 82.6C710.65 82.6 714.05 80.3 715.45 76.8C716.75 73.1 719.85 71.8 722.35 71.8C724.85 71.8 727.95 73.1 729.25 76.7C730.65 80.3 734.05 82.6 738.05 82.6C742.05 82.6 745.45 80.3 746.85 76.8C748.15 73.1 751.25 71.8 753.75 71.8C756.25 71.8 759.35 73.1 760.65 76.7C762.05 80.3 765.45 82.6 769.45 82.6C773.45 82.6 776.85 80.3 778.25 76.8C779.55 73.1 782.65 71.8 785.15 71.8C787.65 71.8 790.75 73.1 792.05 76.7C793.45 80.3 796.85 82.6 800.85 82.6C804.85 82.6 808.35 80.3 809.65 76.7C810.95 73.1 814.05 71.8 816.55 71.8C819.05 71.8 822.15 73.1 823.45 76.7C824.85 80.3 828.25 82.6 832.25 82.6C836.25 82.6 839.65 80.3 841.05 76.8C842.35 73.1 845.45 71.8 847.95 71.8C850.45 71.8 853.55 73.1 854.85 76.7C856.25 80.3 859.65 82.6 863.65 82.6C867.65 82.6 871.05 80.3 872.45 76.8C873.75 73.1 876.85 71.8 879.35 71.8C881.85 71.8 884.95 73.1 886.25 76.7C887.65 80.3 891.05 82.6 895.05 82.6C899.05 82.6 902.45 80.3 903.85 76.8C905.15 73.1 908.25 71.8 910.75 71.8C913.25 71.8 916.35 73.1 917.65 76.7C919.05 80.3 922.45 82.6 926.45 82.6C930.45 82.6 933.95 80.3 935.25 76.7C936.55 73.1 939.65 71.8 942.15 71.8C944.65 71.8 947.75 73.1 949.05 76.7C950.45 80.3 953.85 82.6 957.85 82.6C961.85 82.6 965.25 80.3 966.65 76.8C967.95 73.1 971.05 71.8 973.55 71.8C976.05 71.8 979.15 73.1 980.45 76.7C981.85 80.3 985.25 82.6 989.25 82.6C993.25 82.6 996.65 80.3 998.05 76.8C999.35 73.1 1002.45 71.8 1004.95 71.8C1007.45 71.8 1010.55 73.1 1011.85 76.7C1013.25 80.3 1016.65 82.6 1020.65 82.6C1024.65 82.6 1028.05 80.3 1029.45 76.8C1030.75 73.1 1033.85 71.8 1036.35 71.8C1038.85 71.8 1041.95 73.1 1043.25 76.7C1044.65 80.3 1048.05 82.6 1052.05 82.6C1056.05 82.6 1059.55 80.3 1060.85 76.7C1062.15 73.1 1065.25 71.8 1067.75 71.8C1070.25 71.8 1073.35 73.1 1074.65 76.7C1076.05 80.3 1079.45 82.6 1083.45 82.6C1087.45 82.6 1090.85 80.3 1092.25 76.8C1093.55 73.1 1096.65 71.8 1099.15 71.8C1101.65 71.8 1104.75 73.1 1106.05 76.7C1107.45 80.3 1110.85 82.6 1114.85 82.6C1118.85 82.6 1122.25 80.3 1123.65 76.8C1124.95 73.1 1128.05 71.8 1130.55 71.8C1133.05 71.8 1136.15 73.1 1137.45 76.7C1138.85 80.3 1142.25 82.6 1146.25 82.6C1150.25 82.6 1153.65 80.3 1155.05 76.8C1156.35 73.1 1159.45 71.8 1161.95 71.8C1164.45 71.8 1167.55 73.1 1168.85 76.7C1170.25 80.3 1173.65 82.6 1177.65 82.6C1181.65 82.6 1185.15 80.3 1186.45 76.7C1187.75 73.1 1190.85 71.8 1193.35 71.8C1195.85 71.8 1198.95 73.1 1200.25 76.7C1201.65 80.3 1205.05 82.6 1209.05 82.6C1213.05 82.6 1216.45 80.3 1217.85 76.8C1219.15 73.1 1222.25 71.8 1224.75 71.8C1227.25 71.8 1230.35 73.1 1231.65 76.7C1233.05 80.3 1236.45 82.6 1240.45 82.6C1244.45 82.6 1247.85 80.3 1249.25 76.8C1250.55 73.1 1253.65 71.8 1256.15 71.8C1258.65 71.8 1261.75 73.1 1263.05 76.7C1264.45 80.3 1267.85 82.6 1271.85 82.6C1275.85 82.6 1279.25 80.3 1280.65 76.8C1281.95 73.1 1285.05 71.8 1287.55 71.8C1290.05 71.8 1293.15 73.1 1294.45 76.7C1295.85 80.3 1299.25 82.6 1303.25 82.6C1307.25 82.6 1310.75 80.3 1312.05 76.7C1313.35 73.1 1316.45 71.8 1318.95 71.8C1321.45 71.8 1324.55 73.1 1325.85 76.7C1327.25 80.3 1330.65 82.6 1334.65 82.6C1338.65 82.6 1342.05 80.3 1343.45 76.8C1344.75 73.1 1347.85 71.8 1350.35 71.8C1352.85 71.8 1355.95 73.1 1357.25 76.7C1358.65 80.3 1362.05 82.6 1366.05 82.6C1370.05 82.6 1373.45 80.3 1374.85 76.8C1375.95 73.6 1378.45 72.2 1380.65 71.9V68.8ZM1380.65 92C1377.35 92.6 1374.75 94.8 1373.45 98C1372.15 101.4 1369.05 102.6 1366.55 102.6C1364.05 102.6 1360.95 101.4 1359.65 98.1C1358.35 94.2 1354.85 91.8 1350.85 91.8C1346.85 91.8 1343.45 94.2 1342.05 98C1340.75 101.4 1337.65 102.6 1335.15 102.6C1332.65 102.6 1329.55 101.4 1328.25 98.1C1326.95 94.2 1323.45 91.8 1319.45 91.8C1315.45 91.8 1312.05 94.3 1310.65 98.1C1309.35 101.5 1306.25 102.7 1303.75 102.7C1301.25 102.7 1298.15 101.5 1296.85 98.2C1295.55 94.3 1292.05 91.9 1288.05 91.9C1284.05 91.9 1280.65 94.3 1279.25 98.1C1277.95 101.5 1274.85 102.7 1272.35 102.7C1269.85 102.7 1266.75 101.5 1265.45 98.2C1264.15 94.3 1260.65 91.9 1256.65 91.9C1252.65 91.9 1249.25 94.3 1247.85 98.1C1246.55 101.5 1243.45 102.7 1240.95 102.7C1238.45 102.7 1235.35 101.5 1234.05 98.2C1232.75 94.3 1229.25 91.9 1225.25 91.9C1221.25 91.9 1217.85 94.3 1216.45 98.1C1215.15 101.5 1212.05 102.7 1209.55 102.7C1207.05 102.7 1203.95 101.5 1202.65 98.2C1201.35 94.3 1197.85 91.9 1193.85 91.9C1189.85 91.9 1186.45 94.4 1185.05 98.2C1183.75 101.6 1180.65 102.8 1178.15 102.8C1175.65 102.8 1172.55 101.6 1171.25 98.3C1169.95 94.4 1166.45 92 1162.45 92C1158.45 92 1155.05 94.4 1153.65 98.2C1152.35 101.6 1149.25 102.8 1146.75 102.8C1144.25 102.8 1141.15 101.6 1139.85 98.3C1138.55 94.4 1135.05 92 1131.05 92C1127.05 92 1123.65 94.4 1122.25 98.2C1120.95 101.6 1117.85 102.8 1115.35 102.8C1112.85 102.8 1109.75 101.6 1108.45 98.3C1107.15 94.4 1103.65 92 1099.65 92C1095.65 92 1092.25 94.4 1090.85 98.2C1089.55 101.6 1086.45 102.8 1083.95 102.8C1081.45 102.8 1078.35 101.6 1077.05 98.3C1075.75 94.4 1072.25 92 1068.25 92C1064.25 92 1060.85 94.5 1059.45 98.3C1058.15 101.7 1055.05 102.9 1052.55 102.9C1050.05 102.9 1046.95 101.7 1045.65 98.4C1044.35 94.5 1040.85 92.1 1036.85 92.1C1032.85 92.1 1029.45 94.5 1028.05 98.3C1026.75 101.7 1023.65 102.9 1021.15 102.9C1018.65 102.9 1015.55 101.7 1014.25 98.4C1012.95 94.5 1009.45 92.1 1005.45 92.1C1001.45 92.1 998.05 94.5 996.65 98.3C995.35 101.7 992.25 102.9 989.75 102.9C987.25 102.9 984.15 101.7 982.85 98.4C981.55 94.5 978.05 92.1 974.05 92.1C970.05 92.1 966.65 94.5 965.25 98.3C963.95 101.7 960.85 102.9 958.35 102.9C955.85 102.9 952.75 101.7 951.45 98.4C950.15 94.5 946.65 92.1 942.65 92.1C938.65 92.1 935.25 94.6 933.85 98.4C932.55 101.8 929.45 103 926.95 103C924.45 103 921.35 101.8 920.05 98.5C918.75 94.6 915.25 92.2 911.25 92.2C907.25 92.2 903.85 94.6 902.45 98.4C901.15 101.8 898.05 103 895.55 103C893.05 103 889.95 101.8 888.65 98.5C887.35 94.6 883.85 92.2 879.85 92.2C875.85 92.2 872.45 94.6 871.05 98.4C869.75 101.8 866.65 103 864.15 103C861.65 103 858.55 101.8 857.25 98.5C855.95 94.6 852.45 92.2 848.45 92.2C844.45 92.2 841.05 94.6 839.65 98.4C838.35 101.8 835.25 103 832.75 103C830.25 103 827.15 101.8 825.85 98.5C824.55 94.6 821.05 92.2 817.05 92.2C813.05 92.2 809.65 94.7 808.25 98.5C806.95 101.9 803.85 103.1 801.35 103.1C798.85 103.1 795.75 101.9 794.45 98.6C793.15 94.7 789.65 92.3 785.65 92.3C781.65 92.3 778.25 94.7 776.85 98.5C775.55 101.9 772.45 103.1 769.95 103.1C767.45 103.1 764.35 101.9 763.05 98.6C761.75 94.7 758.25 92.3 754.25 92.3C750.25 92.3 746.85 94.7 745.45 98.5C744.15 101.9 741.05 103.1 738.55 103.1C736.05 103.1 732.95 101.9 731.65 98.6C730.35 94.7 726.85 92.3 722.85 92.3C718.85 92.3 715.45 94.7 714.05 98.5C712.75 101.9 709.65 103.1 707.15 103.1C704.65 103.1 701.55 101.9 700.25 98.6C698.95 94.7 695.45 92.3 691.45 92.3C687.45 92.3 684.05 94.8 682.65 98.6C681.35 102 678.25 103.2 675.75 103.2C673.25 103.2 670.15 102 668.85 98.7C667.55 94.8 664.05 92.4 660.05 92.4C656.05 92.4 652.65 94.8 651.25 98.6C649.95 102 646.85 103.2 644.35 103.2C641.85 103.2 638.75 102 637.45 98.7C636.15 94.8 632.65 92.4 628.65 92.4C624.65 92.4 621.25 94.8 619.85 98.6C618.55 102 615.45 103.2 612.95 103.2C610.45 103.2 607.35 102 606.05 98.7C604.75 94.8 601.25 92.4 597.25 92.4C593.25 92.4 589.85 94.8 588.45 98.6C587.15 102 584.05 103.2 581.55 103.2C579.05 103.2 575.95 102 574.65 98.7C573.35 94.8 569.85 92.4 565.85 92.4C561.85 92.4 558.45 94.9 557.05 98.7C555.75 102.1 552.65 103.3 550.15 103.3C547.65 103.3 544.55 102.1 543.25 98.8C541.95 94.9 538.45 92.5 534.45 92.5C530.45 92.5 527.05 94.9 525.65 98.7C524.35 102.1 521.25 103.3 518.75 103.3C516.25 103.3 513.15 102.1 511.85 98.8C510.55 94.9 507.05 92.5 503.05 92.5C499.05 92.5 495.65 95 494.25 98.8C492.95 102.1 489.85 103.3 487.35 103.3C484.85 103.3 481.75 102.1 480.45 98.8C479.15 94.9 475.65 92.5 471.65 92.5C467.65 92.5 464.25 94.9 462.85 98.7C461.55 102.1 458.45 103.3 455.95 103.3C453.45 103.3 450.35 102.1 449.05 98.8C447.75 94.9 444.25 92.5 440.25 92.5C436.25 92.5 432.85 95 431.45 98.8C430.15 102.2 427.05 103.4 424.55 103.4C422.05 103.4 418.95 102.2 417.65 98.9C416.35 95 412.85 92.6 408.85 92.6C404.85 92.6 401.45 95 400.05 98.8C398.75 102.2 395.65 103.4 393.15 103.4C390.65 103.4 387.55 102.2 386.25 98.9C384.95 95 381.45 92.6 377.45 92.6C373.45 92.6 370.05 95 368.65 98.8C367.35 102.2 364.25 103.4 361.75 103.4C359.25 103.4 356.15 102.2 354.85 98.9C353.55 95 350.05 92.6 346.05 92.6C342.05 92.6 338.65 95 337.25 98.8C335.95 102.2 332.85 103.4 330.35 103.4C327.85 103.4 324.75 102.2 323.45 98.9C322.15 95 318.65 92.6 314.65 92.6C310.65 92.6 307.25 95.1 305.85 98.9C304.55 102.3 301.45 103.5 298.95 103.5C296.45 103.5 293.35 102.3 292.05 99C290.75 95.1 287.25 92.7 283.25 92.7C279.25 92.7 275.85 95.1 274.45 98.9C273.15 102.3 270.05 103.5 267.55 103.5C265.05 103.5 261.95 102.3 260.65 99C259.35 95.1 255.85 92.7 251.85 92.7C247.85 92.7 244.45 95.1 243.05 98.9C241.75 102.3 238.65 103.5 236.15 103.5C233.65 103.5 230.55 102.3 229.25 99C227.95 95.1 224.45 92.7 220.45 92.7C216.45 92.7 213.05 95.1 211.65 98.9C210.35 102.3 207.25 103.5 204.75 103.5C202.25 103.5 199.15 102.3 197.85 99C196.55 95.1 193.05 92.7 189.05 92.7C185.05 92.7 181.65 95.2 180.25 99C178.95 102.4 175.85 103.6 173.35 103.6C170.85 103.6 167.75 102.4 166.45 99.1C165.15 95.2 161.65 92.8 157.65 92.8C153.65 92.8 150.25 95.2 148.85 99C147.55 102.4 144.45 103.6 141.95 103.6C139.45 103.6 136.35 102.4 135.05 99.1C133.75 95.2 130.25 92.8 126.25 92.8C122.25 92.8 118.85 95.2 117.45 99C116.15 102.4 113.05 103.6 110.55 103.6C108.05 103.6 104.95 102.4 103.65 99.1C102.35 95.2 98.8501 92.8 94.8501 92.8C90.8501 92.8 87.4501 95.2 86.0501 99C84.7501 102.4 81.6501 103.6 79.1501 103.6C76.6501 103.6 73.5501 102.4 72.2501 99.1C70.9501 95.2 67.4501 92.8 63.4501 92.8C59.4501 92.8 56.0501 95.3 54.6501 99.1C53.3501 102.5 50.2501 103.7 47.7501 103.7C45.2501 103.7 42.1501 102.5 40.8501 99.2C39.5501 95.3 36.0501 92.9 32.0501 92.9C28.0501 92.9 24.6501 95.3 23.2501 99.1C21.9501 102.5 18.8501 103.7 16.3501 103.7C13.8501 103.7 10.7501 102.5 9.4501 99.2C8.1501 95.3 4.6501 92.9 0.650098 92.9C-3.3499 92.9 -6.8499 95.4 -8.1499 99.2L-6.2499 99.9C-4.9499 96.2 -1.8499 94.9 0.650098 94.9C3.1501 94.9 6.2501 96.2 7.5501 99.8C8.9501 103.4 12.3501 105.7 16.3501 105.7C20.3501 105.7 23.7501 103.4 25.1501 99.9C26.4501 96.2 29.5501 94.9 32.0501 94.9C34.5501 94.9 37.6501 96.2 38.9501 99.8C40.3501 103.4 43.7501 105.7 47.7501 105.7C51.7501 105.7 55.2501 103.4 56.5501 99.8C57.8501 96.2 60.9501 94.9 63.4501 94.9C65.9501 94.9 69.0501 96.2 70.3501 99.8C71.7501 103.4 75.1501 105.7 79.1501 105.7C83.1501 105.7 86.5501 103.4 87.9501 99.9C89.2501 96.2 92.3501 94.9 94.8501 94.9C97.3501 94.9 100.45 96.2 101.75 99.8C103.15 103.4 106.55 105.7 110.55 105.7C114.55 105.7 117.95 103.4 119.35 99.9C120.65 96.2 123.75 94.9 126.25 94.9C128.75 94.9 131.85 96.2 133.15 99.8C134.55 103.4 137.95 105.7 141.95 105.7C145.95 105.7 149.35 103.4 150.75 99.9C152.05 96.2 155.15 94.9 157.65 94.9C160.15 94.9 163.25 96.2 164.55 99.8C165.95 103.4 169.35 105.7 173.35 105.7C177.35 105.7 180.85 103.4 182.15 99.8C183.45 96.2 186.55 94.9 189.05 94.9C191.55 94.9 194.65 96.2 195.95 99.8C197.35 103.4 200.75 105.7 204.75 105.7C208.75 105.7 212.15 103.4 213.55 99.9C214.85 96.2 217.95 94.9 220.45 94.9C222.95 94.9 226.05 96.2 227.35 99.8C228.75 103.4 232.15 105.7 236.15 105.7C240.15 105.7 243.55 103.4 244.95 99.9C246.25 96.2 249.35 94.9 251.85 94.9C254.35 94.9 257.45 96.2 258.75 99.8C260.15 103.4 263.55 105.7 267.55 105.7C271.55 105.7 274.95 103.4 276.35 99.9C277.65 96.2 280.75 94.9 283.25 94.9C285.75 94.9 288.85 96.2 290.15 99.8C291.55 103.4 294.95 105.7 298.95 105.7C302.95 105.7 306.45 103.4 307.75 99.8C309.05 96.2 312.15 94.9 314.65 94.9C317.15 94.9 320.25 96.2 321.55 99.8C322.95 103.4 326.35 105.7 330.35 105.7C334.35 105.7 337.75 103.4 339.15 99.9C340.45 96.2 343.55 94.9 346.05 94.9C348.55 94.9 351.65 96.2 352.95 99.8C354.35 103.4 357.75 105.7 361.75 105.7C365.75 105.7 369.15 103.4 370.55 99.9C371.85 96.2 374.95 94.9 377.45 94.9C379.95 94.9 383.05 96.2 384.35 99.8C385.75 103.4 389.15 105.7 393.15 105.7C397.15 105.7 400.55 103.4 401.95 99.9C403.25 96.2 406.35 94.9 408.85 94.9C411.35 94.9 414.45 96.2 415.75 99.8C417.15 103.4 420.55 105.7 424.55 105.7C428.55 105.7 432.05 103.4 433.35 99.8C434.65 96.2 437.75 94.9 440.25 94.9C442.75 94.9 445.85 96.2 447.15 99.8C448.55 103.4 451.95 105.7 455.95 105.7C459.95 105.7 463.35 103.4 464.75 99.9C466.05 96.2 469.15 94.9 471.65 94.9C474.15 94.9 477.25 96.2 478.55 99.8C479.95 103.4 483.35 105.7 487.35 105.7C491.35 105.7 494.85 103.4 496.15 99.8C497.45 96.2 500.55 94.9 503.05 94.9C505.55 94.9 508.65 96.2 509.95 99.8C511.35 103.4 514.75 105.7 518.75 105.7C522.75 105.7 526.15 103.4 527.55 99.9C528.85 96.2 531.95 94.9 534.45 94.9C536.95 94.9 540.05 96.2 541.35 99.8C542.75 103.4 546.15 105.7 550.15 105.7C554.15 105.7 557.65 103.4 558.95 99.8C560.25 96.2 563.35 94.9 565.85 94.9C568.35 94.9 571.45 96.2 572.75 99.8C574.15 103.4 577.55 105.7 581.55 105.7C585.55 105.7 588.95 103.4 590.35 99.9C591.65 96.2 594.75 94.9 597.25 94.9C599.75 94.9 602.85 96.2 604.15 99.8C605.55 103.4 608.95 105.7 612.95 105.7C616.95 105.7 620.35 103.4 621.75 99.9C623.05 96.2 626.15 94.9 628.65 94.9C631.15 94.9 634.25 96.2 635.55 99.8C636.95 103.4 640.35 105.7 644.35 105.7C648.35 105.7 651.75 103.4 653.15 99.9C654.45 96.2 657.55 94.9 660.05 94.9C662.55 94.9 665.65 96.2 666.95 99.8C668.35 103.4 671.75 105.7 675.75 105.7C679.75 105.7 683.25 103.4 684.55 99.8C685.85 96.2 688.95 94.9 691.45 94.9C693.95 94.9 697.05 96.2 698.35 99.8C699.75 103.4 703.15 105.7 707.15 105.7C711.15 105.7 714.55 103.4 715.95 99.9C717.25 96.2 720.35 94.9 722.85 94.9C725.35 94.9 728.45 96.2 729.75 99.8C731.15 103.4 734.55 105.7 738.55 105.7C742.55 105.7 745.95 103.4 747.35 99.9C748.65 96.2 751.75 94.9 754.25 94.9C756.75 94.9 759.85 96.2 761.15 99.8C762.55 103.4 765.95 105.7 769.95 105.7C773.95 105.7 777.35 103.4 778.75 99.9C780.05 96.2 783.15 94.9 785.65 94.9C788.15 94.9 791.25 96.2 792.55 99.8C793.95 103.4 797.35 105.7 801.35 105.7C805.35 105.7 808.85 103.4 810.15 99.8C811.45 96.2 814.55 94.9 817.05 94.9C819.55 94.9 822.65 96.2 823.95 99.8C825.35 103.4 828.75 105.7 832.75 105.7C836.75 105.7 840.15 103.4 841.55 99.9C842.85 96.2 845.95 94.9 848.45 94.9C850.95 94.9 854.05 96.2 855.35 99.8C856.75 103.4 860.15 105.7 864.15 105.7C868.15 105.7 871.55 103.4 872.95 99.9C874.25 96.2 877.35 94.9 879.85 94.9C882.35 94.9 885.45 96.2 886.75 99.8C888.15 103.4 891.55 105.7 895.55 105.7C899.55 105.7 902.95 103.4 904.35 99.9C905.65 96.2 908.75 94.9 911.25 94.9C913.75 94.9 916.85 96.2 918.15 99.8C919.55 103.4 922.95 105.7 926.95 105.7C930.95 105.7 934.45 103.4 935.75 99.8C937.05 96.2 940.15 94.9 942.65 94.9C945.15 94.9 948.25 96.2 949.55 99.8C950.95 103.4 954.35 105.7 958.35 105.7C962.35 105.7 965.75 103.4 967.15 99.9C968.45 96.2 971.55 94.9 974.05 94.9C976.55 94.9 979.65 96.2 980.95 99.8C982.35 103.4 985.75 105.7 989.75 105.7C993.75 105.7 997.15 103.4 998.55 99.9C999.85 96.2 1002.95 94.9 1005.45 94.9C1007.95 94.9 1011.05 96.2 1012.35 99.8C1013.75 103.4 1017.15 105.7 1021.15 105.7C1025.15 105.7 1028.55 103.4 1029.95 99.9C1031.25 96.2 1034.35 94.9 1036.85 94.9C1039.35 94.9 1042.45 96.2 1043.75 99.8C1045.15 103.4 1048.55 105.7 1052.55 105.7C1056.55 105.7 1060.05 103.4 1061.35 99.8C1062.65 96.2 1065.75 94.9 1068.25 94.9C1070.75 94.9 1073.85 96.2 1075.15 99.8C1076.55 103.4 1079.95 105.7 1083.95 105.7C1087.95 105.7 1091.35 103.4 1092.75 99.9C1094.05 96.2 1097.15 94.9 1099.65 94.9C1102.15 94.9 1105.25 96.2 1106.55 99.8C1107.95 103.4 1111.35 105.7 1115.35 105.7C1119.35 105.7 1122.75 103.4 1124.15 99.9C1125.45 96.2 1128.55 94.9 1131.05 94.9C1133.55 94.9 1136.65 96.2 1137.95 99.8C1139.35 103.4 1142.75 105.7 1146.75 105.7C1150.75 105.7 1154.15 103.4 1155.55 99.9C1156.85 96.2 1159.95 94.9 1162.45 94.9C1164.95 94.9 1168.05 96.2 1169.35 99.8C1170.75 103.4 1174.15 105.7 1178.15 105.7C1182.15 105.7 1185.65 103.4 1186.95 99.8C1188.25 96.2 1191.35 94.9 1193.85 94.9C1196.35 94.9 1199.45 96.2 1200.75 99.8C1202.15 103.4 1205.55 105.7 1209.55 105.7C1213.55 105.7 1216.95 103.4 1218.35 99.9C1219.65 96.2 1222.75 94.9 1225.25 94.9C1227.75 94.9 1230.85 96.2 1232.15 99.8C1233.55 103.4 1236.95 105.7 1240.95 105.7C1244.95 105.7 1248.35 103.4 1249.75 99.9C1251.05 96.2 1254.15 94.9 1256.65 94.9C1259.15 94.9 1262.25 96.2 1263.55 99.8C1264.95 103.4 1268.35 105.7 1272.35 105.7C1276.35 105.7 1279.75 103.4 1281.15 99.9C1282.45 96.2 1285.55 94.9 1288.05 94.9C1290.55 94.9 1293.65 96.2 1294.95 99.8C1296.35 103.4 1299.75 105.7 1303.75 105.7C1307.75 105.7 1311.25 103.4 1312.55 99.8C1313.85 96.2 1316.95 94.9 1319.45 94.9C1321.95 94.9 1325.05 96.2 1326.35 99.8C1327.75 103.4 1331.15 105.7 1335.15 105.7C1339.15 105.7 1342.55 103.4 1343.95 99.9C1345.25 96.2 1348.35 94.9 1350.85 94.9C1353.35 94.9 1356.45 96.2 1357.75 99.8C1359.15 103.4 1362.55 105.7 1366.55 105.7C1370.55 105.7 1373.95 103.4 1375.35 99.9C1376.35 97 1378.55 95.6 1380.65 95.1V92ZM1380.65 114.2C1377.35 114.8 1374.75 117 1373.45 120.2C1372.15 123.6 1369.05 124.8 1366.55 124.8C1364.05 124.8 1360.95 123.6 1359.65 120.3C1358.35 116.4 1354.85 114 1350.85 114C1346.85 114 1343.45 116.4 1342.05 120.2C1340.75 123.6 1337.65 124.8 1335.15 124.8C1332.65 124.8 1329.55 123.6 1328.25 120.3C1326.95 116.4 1323.45 114 1319.45 114C1315.45 114 1312.05 116.5 1310.65 120.3C1309.35 123.7 1306.25 124.9 1303.75 124.9C1301.25 124.9 1298.15 123.7 1296.85 120.4C1295.55 116.5 1292.05 114.1 1288.05 114.1C1284.05 114.1 1280.65 116.5 1279.25 120.3C1277.95 123.7 1274.85 124.9 1272.35 124.9C1269.85 124.9 1266.75 123.7 1265.45 120.4C1264.15 116.5 1260.65 114.1 1256.65 114.1C1252.65 114.1 1249.25 116.5 1247.85 120.3C1246.55 123.7 1243.45 124.9 1240.95 124.9C1238.45 124.9 1235.35 123.7 1234.05 120.4C1232.75 116.5 1229.25 114.1 1225.25 114.1C1221.25 114.1 1217.85 116.5 1216.45 120.3C1215.15 123.7 1212.05 124.9 1209.55 124.9C1207.05 124.9 1203.95 123.7 1202.65 120.4C1201.35 116.5 1197.85 114.1 1193.85 114.1C1189.85 114.1 1186.45 116.6 1185.05 120.4C1183.75 123.8 1180.65 125 1178.15 125C1175.65 125 1172.55 123.8 1171.25 120.5C1169.95 116.6 1166.45 114.2 1162.45 114.2C1158.45 114.2 1155.05 116.6 1153.65 120.4C1152.35 123.8 1149.25 125 1146.75 125C1144.25 125 1141.15 123.8 1139.85 120.5C1138.55 116.6 1135.05 114.2 1131.05 114.2C1127.05 114.2 1123.65 116.6 1122.25 120.4C1120.95 123.8 1117.85 125 1115.35 125C1112.85 125 1109.75 123.8 1108.45 120.5C1107.15 116.6 1103.65 114.2 1099.65 114.2C1095.65 114.2 1092.25 116.6 1090.85 120.4C1089.55 123.8 1086.45 125 1083.95 125C1081.45 125 1078.35 123.8 1077.05 120.5C1075.75 116.6 1072.25 114.2 1068.25 114.2C1064.25 114.2 1060.85 116.7 1059.45 120.5C1058.15 123.9 1055.05 125.1 1052.55 125.1C1050.05 125.1 1046.95 123.9 1045.65 120.6C1044.35 116.7 1040.85 114.3 1036.85 114.3C1032.85 114.3 1029.45 116.7 1028.05 120.5C1026.75 123.9 1023.65 125.1 1021.15 125.1C1018.65 125.1 1015.55 123.9 1014.25 120.6C1012.95 116.7 1009.45 114.3 1005.45 114.3C1001.45 114.3 998.05 116.7 996.65 120.5C995.35 123.9 992.25 125.1 989.75 125.1C987.25 125.1 984.15 123.9 982.85 120.6C981.55 116.7 978.05 114.3 974.05 114.3C970.05 114.3 966.65 116.7 965.25 120.5C963.95 123.9 960.85 125.1 958.35 125.1C955.85 125.1 952.75 123.9 951.45 120.6C950.15 116.7 946.65 114.3 942.65 114.3C938.65 114.3 935.25 116.8 933.85 120.6C932.55 124 929.45 125.2 926.95 125.2C924.45 125.2 921.35 124 920.05 120.7C918.75 116.8 915.25 114.4 911.25 114.4C907.25 114.4 903.85 116.8 902.45 120.6C901.15 124 898.05 125.2 895.55 125.2C893.05 125.2 889.95 124 888.65 120.7C887.35 116.8 883.85 114.4 879.85 114.4C875.85 114.4 872.45 116.8 871.05 120.6C869.75 124 866.65 125.2 864.15 125.2C861.65 125.2 858.55 124 857.25 120.7C855.95 116.8 852.45 114.4 848.45 114.4C844.45 114.4 841.05 116.8 839.65 120.6C838.35 124 835.25 125.2 832.75 125.2C830.25 125.2 827.15 124 825.85 120.7C824.55 116.8 821.05 114.4 817.05 114.4C813.05 114.4 809.65 116.9 808.25 120.7C806.95 124.1 803.85 125.3 801.35 125.3C798.85 125.3 795.75 124.1 794.45 120.8C793.15 116.9 789.65 114.5 785.65 114.5C781.65 114.5 778.25 116.9 776.85 120.7C775.55 124.1 772.45 125.3 769.95 125.3C767.45 125.3 764.35 124.1 763.05 120.8C761.75 116.9 758.25 114.5 754.25 114.5C750.25 114.5 746.85 116.9 745.45 120.7C744.15 124.1 741.05 125.3 738.55 125.3C736.05 125.3 732.95 124.1 731.65 120.8C730.35 116.9 726.85 114.5 722.85 114.5C718.85 114.5 715.45 116.9 714.05 120.7C712.75 124.1 709.65 125.3 707.15 125.3C704.65 125.3 701.55 124.1 700.25 120.8C698.95 116.9 695.45 114.5 691.45 114.5C687.45 114.5 684.05 117 682.65 120.8C681.35 124.2 678.25 125.4 675.75 125.4C673.25 125.4 670.15 124.2 668.85 120.9C667.55 117 664.05 114.6 660.05 114.6C656.05 114.6 652.65 117 651.25 120.8C649.95 124.2 646.85 125.4 644.35 125.4C641.85 125.4 638.75 124.2 637.45 120.9C636.15 117 632.65 114.6 628.65 114.6C624.65 114.6 621.25 117 619.85 120.8C618.55 124.2 615.45 125.4 612.95 125.4C610.45 125.4 607.35 124.2 606.05 120.9C604.75 117 601.25 114.6 597.25 114.6C593.25 114.6 589.85 117 588.45 120.8C587.15 124.2 584.05 125.4 581.55 125.4C579.05 125.4 575.95 124.2 574.65 120.9C573.35 117 569.85 114.6 565.85 114.6C561.85 114.6 558.45 117.1 557.05 120.9C555.75 124.3 552.65 125.5 550.15 125.5C547.65 125.5 544.55 124.3 543.25 121C541.95 117.1 538.45 114.7 534.45 114.7C530.45 114.7 527.05 117.1 525.65 120.9C524.35 124.3 521.25 125.5 518.75 125.5C516.25 125.5 513.15 124.3 511.85 121C510.55 117.1 507.05 114.7 503.05 114.7C499.05 114.7 495.65 117.2 494.25 121C492.95 124.3 489.85 125.5 487.35 125.5C484.85 125.5 481.75 124.3 480.45 121C479.15 117.1 475.65 114.7 471.65 114.7C467.65 114.7 464.25 117.1 462.85 120.9C461.55 124.3 458.45 125.5 455.95 125.5C453.45 125.5 450.35 124.3 449.05 121C447.75 117.1 444.25 114.7 440.25 114.7C436.25 114.7 432.85 117.2 431.45 121C430.15 124.4 427.05 125.6 424.55 125.6C422.05 125.6 418.95 124.4 417.65 121.1C416.35 117.2 412.85 114.8 408.85 114.8C404.85 114.8 401.45 117.2 400.05 121C398.75 124.4 395.65 125.6 393.15 125.6C390.65 125.6 387.55 124.4 386.25 121.1C384.95 117.2 381.45 114.8 377.45 114.8C373.45 114.8 370.05 117.2 368.65 121C367.35 124.4 364.25 125.6 361.75 125.6C359.25 125.6 356.15 124.4 354.85 121.1C353.55 117.2 350.05 114.8 346.05 114.8C342.05 114.8 338.65 117.2 337.25 121C335.95 124.4 332.85 125.6 330.35 125.6C327.85 125.6 324.75 124.4 323.45 121.1C322.15 117.2 318.65 114.8 314.65 114.8C310.65 114.8 307.25 117.3 305.85 121.1C304.55 124.5 301.45 125.7 298.95 125.7C296.45 125.7 293.35 124.5 292.05 121.2C290.75 117.3 287.25 114.9 283.25 114.9C279.25 114.9 275.85 117.3 274.45 121.1C273.15 124.5 270.05 125.7 267.55 125.7C265.05 125.7 261.95 124.5 260.65 121.2C259.35 117.3 255.85 114.9 251.85 114.9C247.85 114.9 244.45 117.3 243.05 121.1C241.75 124.5 238.65 125.7 236.15 125.7C233.65 125.7 230.55 124.5 229.25 121.2C227.95 117.3 224.45 114.9 220.45 114.9C216.45 114.9 213.05 117.3 211.65 121.1C210.35 124.5 207.25 125.7 204.75 125.7C202.25 125.7 199.15 124.5 197.85 121.2C196.55 117.3 193.05 114.9 189.05 114.9C185.05 114.9 181.65 117.4 180.25 121.2C178.95 124.6 175.85 125.8 173.35 125.8C170.85 125.8 167.75 124.6 166.45 121.3C165.15 117.4 161.65 115 157.65 115C153.65 115 150.25 117.4 148.85 121.2C147.55 124.6 144.45 125.8 141.95 125.8C139.45 125.8 136.35 124.6 135.05 121.3C133.75 117.4 130.25 115 126.25 115C122.25 115 118.85 117.4 117.45 121.2C116.15 124.6 113.05 125.8 110.55 125.8C108.05 125.8 104.95 124.6 103.65 121.3C102.35 117.4 98.8501 115 94.8501 115C90.8501 115 87.4501 117.4 86.0501 121.2C84.7501 124.6 81.6501 125.8 79.1501 125.8C76.6501 125.8 73.5501 124.6 72.2501 121.3C70.9501 117.4 67.4501 115 63.4501 115C59.4501 115 56.0501 117.5 54.6501 121.3C53.3501 124.7 50.2501 125.9 47.7501 125.9C45.2501 125.9 42.1501 124.7 40.8501 121.4C39.5501 117.5 36.0501 115.1 32.0501 115.1C28.0501 115.1 24.6501 117.5 23.2501 121.3C21.9501 124.7 18.8501 125.9 16.3501 125.9C13.8501 125.9 10.7501 124.7 9.4501 121.4C8.1501 117.5 4.6501 115.1 0.650098 115.1C-3.3499 115.1 -6.8499 117.6 -8.1499 121.4L-6.2499 122.1C-4.9499 118.4 -1.8499 117.1 0.650098 117.1C3.1501 117.1 6.2501 118.4 7.5501 122C8.9501 125.6 12.3501 127.9 16.3501 127.9C20.3501 127.9 23.7501 125.6 25.1501 122.1C26.4501 118.4 29.5501 117.1 32.0501 117.1C34.5501 117.1 37.6501 118.4 38.9501 122C40.3501 125.6 43.7501 127.9 47.7501 127.9C51.7501 127.9 55.2501 125.6 56.5501 122C57.8501 118.4 60.9501 117.1 63.4501 117.1C65.9501 117.1 69.0501 118.4 70.3501 122C71.7501 125.6 75.1501 127.9 79.1501 127.9C83.1501 127.9 86.5501 125.6 87.9501 122.1C89.2501 118.4 92.3501 117.1 94.8501 117.1C97.3501 117.1 100.45 118.4 101.75 122C103.15 125.6 106.55 127.9 110.55 127.9C114.55 127.9 117.95 125.6 119.35 122.1C120.65 118.4 123.75 117.1 126.25 117.1C128.75 117.1 131.85 118.4 133.15 122C134.55 125.6 137.95 127.9 141.95 127.9C145.95 127.9 149.35 125.6 150.75 122.1C152.05 118.4 155.15 117.1 157.65 117.1C160.15 117.1 163.25 118.4 164.55 122C165.95 125.6 169.35 127.9 173.35 127.9C177.35 127.9 180.85 125.6 182.15 122C183.45 118.4 186.55 117.1 189.05 117.1C191.55 117.1 194.65 118.4 195.95 122C197.35 125.6 200.75 127.9 204.75 127.9C208.75 127.9 212.15 125.6 213.55 122.1C214.85 118.4 217.95 117.1 220.45 117.1C222.95 117.1 226.05 118.4 227.35 122C228.75 125.6 232.15 127.9 236.15 127.9C240.15 127.9 243.55 125.6 244.95 122.1C246.25 118.4 249.35 117.1 251.85 117.1C254.35 117.1 257.45 118.4 258.75 122C260.15 125.6 263.55 127.9 267.55 127.9C271.55 127.9 274.95 125.6 276.35 122.1C277.65 118.4 280.75 117.1 283.25 117.1C285.75 117.1 288.85 118.4 290.15 122C291.55 125.6 294.95 127.9 298.95 127.9C302.95 127.9 306.45 125.6 307.75 122C309.05 118.4 312.15 117.1 314.65 117.1C317.15 117.1 320.25 118.4 321.55 122C322.95 125.6 326.35 127.9 330.35 127.9C334.35 127.9 337.75 125.6 339.15 122.1C340.45 118.4 343.55 117.1 346.05 117.1C348.55 117.1 351.65 118.4 352.95 122C354.35 125.6 357.75 127.9 361.75 127.9C365.75 127.9 369.15 125.6 370.55 122.1C371.85 118.4 374.95 117.1 377.45 117.1C379.95 117.1 383.05 118.4 384.35 122C385.75 125.6 389.15 127.9 393.15 127.9C397.15 127.9 400.55 125.6 401.95 122.1C403.25 118.4 406.35 117.1 408.85 117.1C411.35 117.1 414.45 118.4 415.75 122C417.15 125.6 420.55 127.9 424.55 127.9C428.55 127.9 432.05 125.6 433.35 122C434.65 118.4 437.75 117.1 440.25 117.1C442.75 117.1 445.85 118.4 447.15 122C448.55 125.6 451.95 127.9 455.95 127.9C459.95 127.9 463.35 125.6 464.75 122.1C466.05 118.4 469.15 117.1 471.65 117.1C474.15 117.1 477.25 118.4 478.55 122C479.95 125.6 483.35 127.9 487.35 127.9C491.35 127.9 494.85 125.6 496.15 122C497.45 118.4 500.55 117.1 503.05 117.1C505.55 117.1 508.65 118.4 509.95 122C511.35 125.6 514.75 127.9 518.75 127.9C522.75 127.9 526.15 125.6 527.55 122.1C528.85 118.4 531.95 117.1 534.45 117.1C536.95 117.1 540.05 118.4 541.35 122C542.75 125.6 546.15 127.9 550.15 127.9C554.15 127.9 557.65 125.6 558.95 122C560.25 118.4 563.35 117.1 565.85 117.1C568.35 117.1 571.45 118.4 572.75 122C574.15 125.6 577.55 127.9 581.55 127.9C585.55 127.9 588.95 125.6 590.35 122.1C591.65 118.4 594.75 117.1 597.25 117.1C599.75 117.1 602.85 118.4 604.15 122C605.55 125.6 608.95 127.9 612.95 127.9C616.95 127.9 620.35 125.6 621.75 122.1C623.05 118.4 626.15 117.1 628.65 117.1C631.15 117.1 634.25 118.4 635.55 122C636.95 125.6 640.35 127.9 644.35 127.9C648.35 127.9 651.75 125.6 653.15 122.1C654.45 118.4 657.55 117.1 660.05 117.1C662.55 117.1 665.65 118.4 666.95 122C668.35 125.6 671.75 127.9 675.75 127.9C679.75 127.9 683.25 125.6 684.55 122C685.85 118.4 688.95 117.1 691.45 117.1C693.95 117.1 697.05 118.4 698.35 122C699.75 125.6 703.15 127.9 707.15 127.9C711.15 127.9 714.55 125.6 715.95 122.1C717.25 118.4 720.35 117.1 722.85 117.1C725.35 117.1 728.45 118.4 729.75 122C731.15 125.6 734.55 127.9 738.55 127.9C742.55 127.9 745.95 125.6 747.35 122.1C748.65 118.4 751.75 117.1 754.25 117.1C756.75 117.1 759.85 118.4 761.15 122C762.55 125.6 765.95 127.9 769.95 127.9C773.95 127.9 777.35 125.6 778.75 122.1C780.05 118.4 783.15 117.1 785.65 117.1C788.15 117.1 791.25 118.4 792.55 122C793.95 125.6 797.35 127.9 801.35 127.9C805.35 127.9 808.85 125.6 810.15 122C811.45 118.4 814.55 117.1 817.05 117.1C819.55 117.1 822.65 118.4 823.95 122C825.35 125.6 828.75 127.9 832.75 127.9C836.75 127.9 840.15 125.6 841.55 122.1C842.85 118.4 845.95 117.1 848.45 117.1C850.95 117.1 854.05 118.4 855.35 122C856.75 125.6 860.15 127.9 864.15 127.9C868.15 127.9 871.55 125.6 872.95 122.1C874.25 118.4 877.35 117.1 879.85 117.1C882.35 117.1 885.45 118.4 886.75 122C888.15 125.6 891.55 127.9 895.55 127.9C899.55 127.9 902.95 125.6 904.35 122.1C905.65 118.4 908.75 117.1 911.25 117.1C913.75 117.1 916.85 118.4 918.15 122C919.55 125.6 922.95 127.9 926.95 127.9C930.95 127.9 934.45 125.6 935.75 122C937.05 118.4 940.15 117.1 942.65 117.1C945.15 117.1 948.25 118.4 949.55 122C950.95 125.6 954.35 127.9 958.35 127.9C962.35 127.9 965.75 125.6 967.15 122.1C968.45 118.4 971.55 117.1 974.05 117.1C976.55 117.1 979.65 118.4 980.95 122C982.35 125.6 985.75 127.9 989.75 127.9C993.75 127.9 997.15 125.6 998.55 122.1C999.85 118.4 1002.95 117.1 1005.45 117.1C1007.95 117.1 1011.05 118.4 1012.35 122C1013.75 125.6 1017.15 127.9 1021.15 127.9C1025.15 127.9 1028.55 125.6 1029.95 122.1C1031.25 118.4 1034.35 117.1 1036.85 117.1C1039.35 117.1 1042.45 118.4 1043.75 122C1045.15 125.6 1048.55 127.9 1052.55 127.9C1056.55 127.9 1060.05 125.6 1061.35 122C1062.65 118.4 1065.75 117.1 1068.25 117.1C1070.75 117.1 1073.85 118.4 1075.15 122C1076.55 125.6 1079.95 127.9 1083.95 127.9C1087.95 127.9 1091.35 125.6 1092.75 122.1C1094.05 118.4 1097.15 117.1 1099.65 117.1C1102.15 117.1 1105.25 118.4 1106.55 122C1107.95 125.6 1111.35 127.9 1115.35 127.9C1119.35 127.9 1122.75 125.6 1124.15 122.1C1125.45 118.4 1128.55 117.1 1131.05 117.1C1133.55 117.1 1136.65 118.4 1137.95 122C1139.35 125.6 1142.75 127.9 1146.75 127.9C1150.75 127.9 1154.15 125.6 1155.55 122.1C1156.85 118.4 1159.95 117.1 1162.45 117.1C1164.95 117.1 1168.05 118.4 1169.35 122C1170.75 125.6 1174.15 127.9 1178.15 127.9C1182.15 127.9 1185.65 125.6 1186.95 122C1188.25 118.4 1191.35 117.1 1193.85 117.1C1196.35 117.1 1199.45 118.4 1200.75 122C1202.15 125.6 1205.55 127.9 1209.55 127.9C1213.55 127.9 1216.95 125.6 1218.35 122.1C1219.65 118.4 1222.75 117.1 1225.25 117.1C1227.75 117.1 1230.85 118.4 1232.15 122C1233.55 125.6 1236.95 127.9 1240.95 127.9C1244.95 127.9 1248.35 125.6 1249.75 122.1C1251.05 118.4 1254.15 117.1 1256.65 117.1C1259.15 117.1 1262.25 118.4 1263.55 122C1264.95 125.6 1268.35 127.9 1272.35 127.9C1276.35 127.9 1279.75 125.6 1281.15 122.1C1282.45 118.4 1285.55 117.1 1288.05 117.1C1290.55 117.1 1293.65 118.4 1294.95 122C1296.35 125.6 1299.75 127.9 1303.75 127.9C1307.75 127.9 1311.25 125.6 1312.55 122C1313.85 118.4 1316.95 117.1 1319.45 117.1C1321.95 117.1 1325.05 118.4 1326.35 122C1327.75 125.6 1331.15 127.9 1335.15 127.9C1339.15 127.9 1342.55 125.6 1343.95 122.1C1345.25 118.4 1348.35 117.1 1350.85 117.1C1353.35 117.1 1356.45 118.4 1357.75 122C1359.15 125.6 1362.55 127.9 1366.55 127.9C1370.55 127.9 1373.95 125.6 1375.35 122.1C1376.35 119.2 1378.55 117.8 1380.65 117.3V114.2Z" fill="#052C73"/>
</g>
</g>
<defs>
<clipPath id="clip0_42_1036">
<rect width="1372" height="128" fill="white" transform="translate(0.5)"/>
</clipPath>
<clipPath id="clip1_42_1036">
<rect width="1372" height="128" fill="white" transform="translate(0.5)"/>
</clipPath>
</defs>
</svg>
